<?xml version="1.0" encoding="UTF-8"?><svg id="Layer_1" xmlns="http://www.w3.org/2000/svg" width="36" height="692" viewBox="0 0 36 692"><defs><style>.cls-1{fill:#3f8639;}</style></defs><path class="cls-1" d="M8.15,17.49v9.22c2.88,4.29,8.13,4.29,14.15,4.29,4.07,0,9-.11,11.95-.29-.29.54-.68,1.69-.83,2.41-2.45.07-6.33.14-9.9.14-7.85,0-12.78,0-16.41-4.43-1.69,1.58-3.46,3.17-4.93,4.39.04.32-.04.43-.32.58l-1.4-2.59c1.62-1.19,3.56-2.74,5.33-4.32v-7.13H.88v-2.27h7.27ZM2.64,8.31c2.34,1.04,5.11,2.81,6.44,4.21l-1.66,1.76c-1.3-1.4-4.03-3.24-6.37-4.39l1.58-1.58ZM4.08.93c2.2,1.15,4.86,2.99,6.12,4.43l-1.73,1.66c-1.19-1.44-3.78-3.35-6.01-4.54l1.62-1.55ZM33.82,6.29v1.91H10.74v-1.91h23.07ZM30.69,28.91h-2.38v-1.12h-12.2v1.12h-2.3v-9.58h16.88v9.58ZM30.29,10.69v1.84H14.27v-1.84h16.02ZM14.27,16.84v-1.84h16.02v1.84H14.27ZM30,1.97v1.84h-15.41v-1.84h15.41ZM16.11,25.92h12.2v-4.72h-12.2v4.72Z"/><path class="cls-1" d="M18.66,68.55v5.26c1.76.22,3.38.25,7.27.25,2.84,0,7.06,0,8.28-.04-.36.58-.76,1.66-.9,2.34h-9.94c-7.52,0-12.24-1.19-15.23-6.37-1.4,2.99-3.35,5.47-5.87,7.13-.36-.47-1.15-1.26-1.66-1.62,3.71-2.38,6.16-6.73,7.13-12.21l2.99.61c-.07.25-.29.4-.72.43-.22,1.01-.47,1.98-.79,2.92,1.44,3.46,3.74,5.22,6.95,6.09v-11.31H1.31v-2.2h32.25v2.2h-14.9v4.32h12.53v2.2h-12.53ZM29.68,45.21v11.85H6.32v-11.85h23.36ZM27.23,50.22v-3.13H8.66v3.13h18.57ZM27.23,55.19v-3.17H8.66v3.17h18.57Z"/><path class="cls-1" d="M23.05,100.05c.4,3.17.94,6.16,1.62,8.71,1.98-2.16,3.67-4.54,4.97-6.95l2.7,1.04c-.11.25-.4.36-.76.32-1.55,2.84-3.67,5.62-6.12,8.17,1.37,4,3.1,6.55,5.04,6.55,1.04,0,1.55-1.94,1.76-6.66.54.5,1.4,1.12,2.05,1.37-.47,6.05-1.4,7.81-4,7.81-2.92,0-5.18-2.77-6.84-7.17-2.45,2.2-5.11,4.14-7.96,5.65-.4-.61-1.12-1.4-1.69-1.94,3.17-1.55,6.16-3.67,8.82-6.16-.94-3.13-1.62-6.81-2.09-10.77h-8.93v6.19c2.2-.47,4.46-.97,6.7-1.48l.18,2.12-6.88,1.69v8.53c0,2.81-1.04,3.31-7.56,3.24-.11-.68-.54-1.76-.9-2.45,1.01.04,1.98.04,2.81.04q3.24,0,3.24-.83v-7.96c-2.7.65-5.11,1.22-7.02,1.66-.07.29-.25.5-.5.58l-.97-2.88c2.23-.43,5.22-1.04,8.5-1.73v-6.73H1.24v-2.3h7.99v-6.16c-2.3.43-4.72.83-6.95,1.15-.11-.58-.47-1.44-.76-2.02,5.11-.79,11.09-2.09,14.51-3.38l1.91,2.2c-.11.07-.22.11-.4.11-.11,0-.22,0-.32-.04-1.58.54-3.67,1.08-5.97,1.55l1.12.07c-.04.29-.22.43-.72.5v6.01h8.67c-.36-3.46-.54-7.02-.58-10.59l3.35.18c0,.29-.25.47-.79.58,0,3.31.14,6.66.47,9.83h10.87v2.3h-10.58ZM26.91,87.74c2.3,1.73,4.82,4.32,5.94,6.16l-1.98,1.44c-1.04-1.84-3.53-4.5-5.83-6.3l1.87-1.3Z"/><path class="cls-1" d="M6.03,136.24c.68-1.84,1.4-4.36,1.76-6.19l3.1.76c-.11.25-.32.36-.79.36-.4,1.48-1.12,3.49-1.8,5.08h6.05v21.43H4.48v2.99h-2.27v-24.42h3.82ZM12.04,145.67v-7.2h-7.56v7.2h7.56ZM4.48,155.43h7.56v-7.6h-7.56v7.6ZM31.73,136.31l1.26.07c-.04.18-.04.54-.04.79-.5,17.43-.97,23.19-2.38,24.92-.9,1.22-1.87,1.44-4.39,1.44-1.19,0-2.66-.04-4.14-.14-.07-.68-.36-1.69-.79-2.3,2.56.18,4.86.18,5.87.18.58,0,.97-.14,1.33-.54,1.15-1.26,1.69-6.88,2.12-22.15h-10.11c-1.15,3.17-2.56,6.05-4.14,8.21-.4-.43-1.26-1.22-1.8-1.58,2.56-3.42,4.64-9.33,5.87-15.2l3.06.72c-.11.32-.4.43-.79.4-.4,1.73-.86,3.49-1.44,5.19h10.51ZM21.51,143.94c2.09,2.81,4.21,6.52,4.97,8.97l-2.2,1.04c-.76-2.45-2.77-6.27-4.86-9.07l2.09-.94Z"/><path class="cls-1" d="M12.87,191.4l-4.17,1.51v10.88c0,2.59-1.19,2.99-5.98,2.92-.11-.58-.47-1.58-.79-2.23,1.69.04,3.24.04,3.71.04.47-.04.68-.18.68-.68v-10.08c-1.69.61-3.24,1.15-4.46,1.55,0,.29-.18.5-.43.58l-1.01-2.84c1.62-.43,3.67-1.04,5.9-1.76v-8.43H.84v-2.27h5.47v-7.27l3.1.18c-.04.29-.22.43-.72.5v6.59h4.14v2.27h-4.14v7.67l3.89-1.22.29,2.12ZM30.04,188.99l1.62.72c-.07.18-.22.25-.32.36-1.37,4.21-3.67,7.56-6.55,10.23,2.66,1.98,5.94,3.46,9.72,4.29-.58.5-1.26,1.48-1.62,2.16-3.92-1.01-7.27-2.63-10.04-4.86-3.06,2.23-6.59,3.85-10.29,4.86-.25-.61-.83-1.62-1.33-2.12,3.53-.83,6.91-2.3,9.83-4.39-2.3-2.3-4.1-5.08-5.36-8.35l1.84-.54h-3.17v-2.23h15.26l.43-.11ZM18.81,177.03v1.4c0,3.13-.94,7.06-4.93,9.69-.32-.5-1.19-1.4-1.66-1.76,3.64-2.3,4.28-5.44,4.28-7.96v-3.64h11.88v8.89c0,.79.14.94.83.94h2.16c.72,0,.86-.54.94-4.43.5.4,1.44.76,2.05.94-.18,4.46-.76,5.58-2.74,5.58h-2.77c-2.16,0-2.81-.61-2.81-3.02v-6.63h-7.24ZM17.91,191.33c1.15,2.84,2.84,5.37,5,7.42,2.3-2.02,4.14-4.5,5.36-7.42h-10.37Z"/><path class="cls-1" d="M.92,227.01c2.63-.68,6.44-1.8,10.26-2.88l.29,1.94c-3.31,1.08-6.77,2.2-8.96,2.84-.04.29-.22.47-.43.58l-1.15-2.48ZM14.56,245.95c-.14.18-.43.29-.79.22-2.88,1.44-7.27,2.95-10.83,3.85-.43-.47-1.19-1.33-1.66-1.76,3.53-.76,8.03-2.12,10.69-3.6l2.59,1.3ZM3.87,217.36c2.56.68,5.9,1.91,7.67,2.85l-1.08,1.91c-1.73-.97-5.08-2.3-7.67-3.1l1.08-1.66ZM5.81,244.15v-14.76h23.65v14.76H5.81ZM8.15,231.11v2.63h18.9v-2.63H8.15ZM8.15,235.4v2.67h18.9v-2.67H8.15ZM8.15,239.72v2.74h18.9v-2.74H8.15ZM23.52,221.1c.86,2.95,2.95,5.69,10.47,6.84-.47.47-1.04,1.37-1.3,1.98-6.33-1.12-9-3.6-10.33-6.34-1.3,2.74-3.89,4.57-9.47,5.69-.18-.5-.72-1.33-1.12-1.73,6.01-1.08,8.28-2.99,9.14-6.45h-4.14c-.9,1.12-2.02,2.2-3.31,3.2-.43-.47-1.26-.97-1.84-1.22,2.77-1.91,4.61-4.43,5.58-6.63l2.7.4c-.04.25-.25.4-.68.43-.29.61-.65,1.26-1.08,1.91h13.1l.43-.04,1.44.18c-.47,1.37-2.52,4.25-3.78,5.44l-1.94-.72c.79-.76,1.62-1.87,2.34-2.95h-6.23ZM31.01,250.02c-2.34-1.19-6.3-2.7-10.37-4l1.98-1.26c4,1.22,8.39,2.77,11.05,3.96l-2.66,1.3Z"/><path class="cls-1" d="M13.87,279.47c-.22-.58-.5-1.22-.83-1.94l-4.03.22v15.41h-2.2v-15.3c-2.05.07-3.92.18-5.4.22-.04.29-.25.4-.5.47l-.65-2.7h2.74c.79-.94,1.62-2.02,2.41-3.13-1.08-1.62-3.06-3.75-4.79-5.26l1.22-1.58c.36.29.72.61,1.08.97,1.26-2.12,2.74-5.04,3.56-7.13l2.63,1.12c-.14.22-.36.29-.76.29-.97,2.09-2.63,5.04-4.03,7.06.94.94,1.76,1.91,2.38,2.7,1.62-2.41,3.17-4.97,4.28-7.06l2.56,1.22c-.11.18-.4.29-.79.29-1.87,3.1-4.82,7.35-7.42,10.48l6.73-.11c-.72-1.22-1.51-2.48-2.3-3.57l1.8-.86c1.69,2.23,3.53,5.26,4.21,7.24l-1.91.97ZM5.27,281.13c-.07.22-.29.36-.68.36-.5,3.06-1.33,6.52-2.45,8.64-.47-.32-1.26-.68-1.8-.94,1.04-2.02,1.84-5.47,2.3-8.75l2.63.68ZM12.54,280.34c1.08,2.2,2.09,5.04,2.48,6.91-.43.18-.86.32-2.02.72-.32-1.91-1.3-4.83-2.34-7.02l1.87-.61ZM31.44,289.84h2.74v2.23H13.05v-2.23h3.74v-28.41h14.65v28.41ZM28.99,263.66h-9.86v7.17h9.86v-7.17ZM28.99,280.23v-7.17h-9.86v7.17h9.86ZM19.13,282.46v7.38h9.86v-7.38h-9.86Z"/><path class="cls-1" d="M19.6,303.09c-.11.32-.36.47-.76.54,3.56,4.83,10.12,9.94,15.77,12.57-.58.54-1.19,1.37-1.58,2.09-5.72-2.99-12.24-8.17-15.69-12.89-2.99,4.46-9.04,9.76-15.33,13.18-.32-.54-1.01-1.4-1.51-1.91,6.41-3.31,12.67-8.97,15.55-13.79l3.56.22ZM6.39,336.4v-14.58h22.17v14.58h-2.45v-1.55H8.76v1.55h-2.38ZM8.22,314.86h18.43v2.2H8.22v-2.2ZM26.11,324.05H8.76v8.61h17.35v-8.61Z"/><path class="cls-1" d="M8.15,363.15v9.22c2.88,4.29,8.13,4.29,14.15,4.29,4.07,0,9-.11,11.95-.29-.29.54-.68,1.69-.83,2.41-2.45.07-6.33.14-9.9.14-7.85,0-12.78,0-16.41-4.43-1.69,1.58-3.46,3.17-4.93,4.39.04.32-.04.43-.32.58l-1.4-2.59c1.62-1.19,3.56-2.74,5.33-4.32v-7.13H.88v-2.27h7.27ZM2.64,353.97c2.34,1.04,5.11,2.81,6.44,4.21l-1.66,1.76c-1.3-1.41-4.03-3.24-6.37-4.39l1.58-1.58ZM4.08,346.58c2.2,1.15,4.86,2.99,6.12,4.43l-1.73,1.66c-1.19-1.44-3.78-3.35-6.01-4.54l1.62-1.55ZM33.82,351.95v1.91H10.74v-1.91h23.07ZM30.69,374.56h-2.38v-1.12h-12.2v1.12h-2.3v-9.58h16.88v9.58ZM30.29,356.34v1.84H14.27v-1.84h16.02ZM14.27,362.5v-1.84h16.02v1.84H14.27ZM30,347.63v1.84h-15.41v-1.84h15.41ZM16.11,371.57h12.2v-4.72h-12.2v4.72Z"/><path class="cls-1" d="M18.66,414.21v5.26c1.76.22,3.38.25,7.27.25,2.84,0,7.06,0,8.28-.04-.36.58-.76,1.66-.9,2.34h-9.94c-7.52,0-12.24-1.19-15.23-6.37-1.4,2.99-3.35,5.47-5.87,7.13-.36-.47-1.15-1.26-1.66-1.62,3.71-2.38,6.16-6.73,7.13-12.21l2.99.61c-.07.25-.29.4-.72.43-.22,1.01-.47,1.98-.79,2.92,1.44,3.46,3.74,5.22,6.95,6.08v-11.31H1.31v-2.2h32.25v2.2h-14.9v4.32h12.53v2.2h-12.53ZM29.68,390.87v11.85H6.32v-11.85h23.36ZM27.23,395.88v-3.13H8.66v3.13h18.57ZM27.23,400.85v-3.17H8.66v3.17h18.57Z"/><path class="cls-1" d="M23.05,445.71c.4,3.17.94,6.16,1.62,8.71,1.98-2.16,3.67-4.54,4.97-6.95l2.7,1.04c-.11.25-.4.36-.76.32-1.55,2.84-3.67,5.62-6.12,8.17,1.37,4,3.1,6.55,5.04,6.55,1.04,0,1.55-1.95,1.76-6.66.54.5,1.4,1.12,2.05,1.37-.47,6.05-1.4,7.81-4,7.81-2.92,0-5.18-2.77-6.84-7.17-2.45,2.2-5.11,4.14-7.96,5.65-.4-.61-1.12-1.4-1.69-1.94,3.17-1.55,6.16-3.67,8.82-6.16-.94-3.13-1.62-6.81-2.09-10.77h-8.93v6.19c2.2-.47,4.46-.97,6.7-1.48l.18,2.12-6.88,1.69v8.53c0,2.81-1.04,3.31-7.56,3.24-.11-.68-.54-1.76-.9-2.45,1.01.04,1.98.04,2.81.04q3.24,0,3.24-.83v-7.96c-2.7.65-5.11,1.22-7.02,1.66-.07.29-.25.5-.5.58l-.97-2.88c2.23-.43,5.22-1.04,8.5-1.73v-6.73H1.24v-2.3h7.99v-6.16c-2.3.43-4.72.83-6.95,1.15-.11-.58-.47-1.44-.76-2.02,5.11-.79,11.09-2.09,14.51-3.38l1.91,2.2c-.11.07-.22.11-.4.11-.11,0-.22,0-.32-.04-1.58.54-3.67,1.08-5.97,1.55l1.12.07c-.04.29-.22.43-.72.5v6.01h8.67c-.36-3.46-.54-7.02-.58-10.59l3.35.18c0,.29-.25.47-.79.58,0,3.31.14,6.66.47,9.83h10.87v2.3h-10.58ZM26.91,433.39c2.3,1.73,4.82,4.32,5.94,6.16l-1.98,1.44c-1.04-1.84-3.53-4.5-5.83-6.3l1.87-1.3Z"/><path class="cls-1" d="M6.03,481.9c.68-1.84,1.4-4.36,1.76-6.19l3.1.76c-.11.25-.32.36-.79.36-.4,1.48-1.12,3.49-1.8,5.08h6.05v21.43H4.48v2.99h-2.27v-24.42h3.82ZM12.04,491.33v-7.2h-7.56v7.2h7.56ZM4.48,501.09h7.56v-7.6h-7.56v7.6ZM31.73,481.97l1.26.07c-.04.18-.04.54-.04.79-.5,17.43-.97,23.19-2.38,24.92-.9,1.22-1.87,1.44-4.39,1.44-1.19,0-2.66-.04-4.14-.14-.07-.68-.36-1.69-.79-2.3,2.56.18,4.86.18,5.87.18.58,0,.97-.14,1.33-.54,1.15-1.26,1.69-6.88,2.12-22.15h-10.11c-1.15,3.17-2.56,6.05-4.14,8.21-.4-.43-1.26-1.22-1.8-1.58,2.56-3.42,4.64-9.33,5.87-15.2l3.06.72c-.11.32-.4.43-.79.4-.4,1.73-.86,3.49-1.44,5.19h10.51ZM21.51,489.6c2.09,2.81,4.21,6.52,4.97,8.97l-2.2,1.04c-.76-2.45-2.77-6.27-4.86-9.08l2.09-.94Z"/><path class="cls-1" d="M12.87,537.06l-4.17,1.51v10.88c0,2.59-1.19,2.99-5.98,2.92-.11-.58-.47-1.58-.79-2.23,1.69.04,3.24.04,3.71.04.47-.04.68-.18.68-.68v-10.08c-1.69.61-3.24,1.15-4.46,1.55,0,.29-.18.5-.43.58l-1.01-2.84c1.62-.43,3.67-1.04,5.9-1.76v-8.43H.84v-2.27h5.47v-7.27l3.1.18c-.04.29-.22.43-.72.5v6.59h4.14v2.27h-4.14v7.67l3.89-1.22.29,2.12ZM30.04,534.65l1.62.72c-.07.18-.22.25-.32.36-1.37,4.21-3.67,7.56-6.55,10.23,2.66,1.98,5.94,3.46,9.72,4.29-.58.5-1.26,1.48-1.62,2.16-3.92-1.01-7.27-2.63-10.04-4.86-3.06,2.23-6.59,3.85-10.29,4.86-.25-.61-.83-1.62-1.33-2.12,3.53-.83,6.91-2.3,9.83-4.39-2.3-2.3-4.1-5.08-5.36-8.35l1.84-.54h-3.17v-2.23h15.26l.43-.11ZM18.81,522.69v1.4c0,3.13-.94,7.06-4.93,9.69-.32-.5-1.19-1.4-1.66-1.76,3.64-2.3,4.28-5.44,4.28-7.96v-3.64h11.88v8.89c0,.79.14.94.83.94h2.16c.72,0,.86-.54.94-4.43.5.4,1.44.76,2.05.94-.18,4.47-.76,5.58-2.74,5.58h-2.77c-2.16,0-2.81-.61-2.81-3.03v-6.62h-7.24ZM17.91,536.99c1.15,2.84,2.84,5.37,5,7.42,2.3-2.02,4.14-4.5,5.36-7.42h-10.37Z"/><path class="cls-1" d="M.92,572.67c2.63-.68,6.44-1.8,10.26-2.88l.29,1.94c-3.31,1.08-6.77,2.2-8.96,2.84-.04.29-.22.47-.43.58l-1.15-2.48ZM14.56,591.61c-.14.18-.43.29-.79.22-2.88,1.44-7.27,2.95-10.83,3.85-.43-.47-1.19-1.33-1.66-1.76,3.53-.76,8.03-2.12,10.69-3.6l2.59,1.3ZM3.87,563.02c2.56.68,5.9,1.91,7.67,2.84l-1.08,1.91c-1.73-.97-5.08-2.3-7.67-3.1l1.08-1.66ZM5.81,589.81v-14.76h23.65v14.76H5.81ZM8.15,576.77v2.63h18.9v-2.63H8.15ZM8.15,581.06v2.67h18.9v-2.67H8.15ZM8.15,585.38v2.74h18.9v-2.74H8.15ZM23.52,566.76c.86,2.95,2.95,5.69,10.47,6.84-.47.47-1.04,1.37-1.3,1.98-6.33-1.12-9-3.6-10.33-6.34-1.3,2.74-3.89,4.57-9.47,5.69-.18-.5-.72-1.33-1.12-1.73,6.01-1.08,8.28-2.99,9.14-6.45h-4.14c-.9,1.12-2.02,2.2-3.31,3.21-.43-.47-1.26-.97-1.84-1.22,2.77-1.91,4.61-4.43,5.58-6.63l2.7.4c-.04.25-.25.4-.68.43-.29.61-.65,1.26-1.08,1.91h13.1l.43-.04,1.44.18c-.47,1.37-2.52,4.25-3.78,5.44l-1.94-.72c.79-.76,1.62-1.87,2.34-2.95h-6.23ZM31.01,595.68c-2.34-1.19-6.3-2.7-10.37-4l1.98-1.26c4,1.22,8.39,2.77,11.05,3.96l-2.66,1.3Z"/><path class="cls-1" d="M13.87,625.13c-.22-.58-.5-1.22-.83-1.94l-4.03.22v15.41h-2.2v-15.3c-2.05.07-3.92.18-5.4.22-.04.29-.25.4-.5.47l-.65-2.7h2.74c.79-.94,1.62-2.02,2.41-3.13-1.08-1.62-3.06-3.75-4.79-5.26l1.22-1.58c.36.29.72.61,1.08.97,1.26-2.12,2.74-5.04,3.56-7.13l2.63,1.12c-.14.22-.36.29-.76.29-.97,2.09-2.63,5.04-4.03,7.06.94.94,1.76,1.91,2.38,2.7,1.62-2.41,3.17-4.97,4.28-7.06l2.56,1.22c-.11.18-.4.29-.79.29-1.87,3.1-4.82,7.35-7.42,10.48l6.73-.11c-.72-1.22-1.51-2.48-2.3-3.57l1.8-.86c1.69,2.23,3.53,5.26,4.21,7.24l-1.91.97ZM5.27,626.78c-.07.22-.29.36-.68.36-.5,3.06-1.33,6.52-2.45,8.64-.47-.32-1.26-.68-1.8-.94,1.04-2.02,1.84-5.47,2.3-8.75l2.63.68ZM12.54,625.99c1.08,2.2,2.09,5.04,2.48,6.91-.43.18-.86.32-2.02.72-.32-1.91-1.3-4.83-2.34-7.02l1.87-.61ZM31.44,635.5h2.74v2.23H13.05v-2.23h3.74v-28.41h14.65v28.41ZM28.99,609.32h-9.86v7.17h9.86v-7.17ZM28.99,625.88v-7.17h-9.86v7.17h9.86ZM19.13,628.12v7.38h9.86v-7.38h-9.86Z"/><path class="cls-1" d="M19.6,648.75c-.11.32-.36.47-.76.54,3.56,4.83,10.12,9.94,15.77,12.57-.58.54-1.19,1.37-1.58,2.09-5.72-2.99-12.24-8.17-15.69-12.89-2.99,4.46-9.04,9.76-15.33,13.18-.32-.54-1.01-1.4-1.51-1.91,6.41-3.31,12.67-8.97,15.55-13.79l3.56.22ZM6.39,682.06v-14.58h22.17v14.58h-2.45v-1.55H8.76v1.55h-2.38ZM8.22,660.52h18.43v2.2H8.22v-2.2ZM26.11,669.7H8.76v8.61h17.35v-8.61Z"/></svg>