<?xml version="1.0" encoding="UTF-8"?><svg id="Layer_1" xmlns="http://www.w3.org/2000/svg" width="23" height="478" viewBox="0 0 23 478"><defs><style>.cls-1{fill:#3f8639;}</style></defs><path class="cls-1" d="M10.84,6.68l.24-.09c1.08,1.02,4.36,3.04,4.96,5.03.23.76.26,1.32.26,1.97,0,1.07-.38,2.6-.94,3.27-1.08,1.16-2.34,1.62-3.61,1.62-.87,0-1.57-.18-2.09-.53-1.22-.79-1.8-2.2-1.8-3.9,0-1.18.54-2.46,1.06-3.38.4-.7.92-1.41,1.73-2.23,0-.58.1-1.18.19-1.76ZM8.94,13.77c0,1.3,1.41,2.37,2.92,2.37,1.01,0,1.9-.35,2.72-.95.56-.4.77-.79.77-1.16,0-.6-.47-1.32-.94-1.92-.72-.9-1.78-1.69-2.81-2.29-1.64,1.32-2.65,2.62-2.65,3.94Z"/><path class="cls-1" d="M8.32,56.68c.05,1.51.68,2.71,2.86,2.71,1.36,0,2.51-.42,3.79-1.14.23-.12.35-.28.35-.42,0-.95-.61-2.2-1.64-3.34-1-1.07-2.32-2.02-3.56-2.65-.42-.21-.56-.44-.56-.65,0-.44.49-1.35.89-2l.14-.02c1.41.88,3,2.18,4.17,3.64,1.06,1.34,1.73,2.69,1.73,4.17,0,1.09-.28,2.13-.73,3.08-1.55.93-3.21,1.63-4.85,1.63-1.99,0-3.35-1.11-3.35-3.71,0-.28,0-.72.09-1.28h.68ZM10.22,43.34c.72.53,1.41,1.16,2.09,1.88-.38.63-.86,1.21-1.45,1.72-.68-.65-1.36-1.21-2.06-1.81.47-.63.94-1.25,1.41-1.79Z"/><path class="cls-1" d="M10.84,93.07l.24-.09c1.08,1.02,4.36,3.04,4.96,5.03.23.76.26,1.32.26,1.97,0,1.07-.38,2.6-.94,3.27-1.08,1.16-2.34,1.62-3.61,1.62-.87,0-1.57-.18-2.09-.53-1.22-.79-1.8-2.2-1.8-3.9,0-1.18.54-2.46,1.06-3.38.4-.7.92-1.41,1.73-2.23,0-.58.1-1.18.19-1.76ZM8.94,100.15c0,1.3,1.41,2.37,2.92,2.37,1.01,0,1.9-.35,2.72-.95.56-.4.77-.79.77-1.16,0-.6-.47-1.32-.94-1.92-.72-.9-1.78-1.69-2.81-2.29-1.64,1.32-2.65,2.62-2.65,3.94Z"/><path class="cls-1" d="M10.84,136.26l.24-.09c1.08,1.02,4.36,3.04,4.96,5.03.23.76.26,1.32.26,1.97,0,1.07-.38,2.6-.94,3.27-1.08,1.16-2.34,1.62-3.61,1.62-.87,0-1.57-.18-2.09-.53-1.22-.79-1.8-2.2-1.8-3.9,0-1.18.54-2.46,1.06-3.38.4-.7.92-1.41,1.73-2.23,0-.58.1-1.18.19-1.76ZM8.94,143.34c0,1.3,1.41,2.37,2.92,2.37,1.01,0,1.9-.35,2.72-.95.56-.4.77-.79.77-1.16,0-.6-.47-1.32-.94-1.92-.72-.9-1.78-1.69-2.81-2.29-1.64,1.32-2.65,2.62-2.65,3.94Z"/><path class="cls-1" d="M18.21,184.3c-.33-1.49-.84-2.2-1.33-2.2-.77,0-1.85.51-2.78,1.25-.98.77-1.71,1.63-1.71,2.27,0,1.56,4.54,1.37,5.76,2.37.45.42.77.98.77,1.97,0,.93-.63,2.48-1.43,3.25-1.71,1.62-4.38,2.92-6.74,2.92-4.07,0-6.04-2.76-6.04-6.45,0-1.63.37-3.04.92-4.34l.68.23c-.38,1.18-.54,2.18-.54,3.08,0,3.32,2.25,5.12,5.13,5.12,1.08,0,2.95-.42,4.71-1.46,1.12-.67,2.16-1.49,2.16-1.76,0-.53-1.27-.93-2.72-1.14-1.54-.23-2.74-.56-3.2-1.07-.37-.4-.65-.9-.65-1.58,0-1.78.75-3.27,1.94-4.52,1.22-1.27,3.12-2.5,4.33-2.5.56,0,.96.28,1.27.93.28.6.42,1.18.42,1.65,0,.42-.42,1.34-.72,1.95l-.26.04ZM9.99,201.48c-.72-.69-1.34-1.25-2.04-1.83.45-.63.94-1.21,1.38-1.67.72.56,1.31,1.14,1.99,1.88-.49.7-.84,1.16-1.33,1.62ZM13.35,201.25c-.72-.69-1.34-1.25-2.04-1.83.45-.63.94-1.21,1.38-1.67.72.56,1.31,1.14,1.99,1.88-.49.7-.84,1.16-1.33,1.62Z"/><path class="cls-1" d="M15.13,231.2c-1.92,0-2.86.81-2.86,1.3,0,1.83,1.27,5.2,2.23,8.89.1.4.21,1.05.21,1.56,0,.9-.19,1.74-.4,2.58l-.42-.05c-.03-2.07-1.43-5.61-2.55-9.28-.17-.6-.33-1.46-.33-2.02,0-.79.16-1.56.45-2.32.37-.98.87-1.81,1.57-2.29-.14-.77-.26-1.65-.26-2.29,0-.72.51-1.69.98-2.11.47-.42,1.01-.72,1.62-.72.8,0,1.54.23,2.2.77,1.08.91,1.97,2.06,2.67,3.43.14.3.23.77.23,1.12,0,.58-.31,1.34-.59,1.86-1.59-.25-3.16-.46-4.75-.46ZM18.62,229.2c-.99-1.34-2.06-2.64-3.72-2.64-.35,0-.72.07-1.06.19l.05.91c-.1.65-.28,1.28-.44,1.69.61-.21,1.48-.32,2.37-.32.59,0,1.73.12,2.72.35l.07-.19Z"/><path class="cls-1" d="M13.36,271.67c-2.03-.76-3.25-.98-4.85-.98-1,0-1.73.32-2.22.88l.35,1.48-.49,1.39-.19.05-1.01-2.78c.14-1.95,1.69-3.16,3.79-3.16,1.17,0,3.02.42,5.73,1.53.84.33,1.69.54,2.99.56l1.54-.02.02.04-1.05,1.78c-1.19.12-3.86.86-4.66,1.16-3.82,1.44-6.46,3.52-6.46,5.85,0,3.66,3.84,5.77,8.71,5.77,1.57,0,3.05-.16,4.49-.39l.05.18c-.89.74-1.89,1.55-2.85,2.09-.91.18-2.06.32-3.3.32-4.59,0-8.41-2.25-8.41-7.14,0-4.18,3.51-7.51,7.86-8.54l-.02-.05Z"/><path class="cls-1" d="M18.71,316.23c-2.03,0-3.58-.54-4.19-1.9-.16-.37-.26-.79-.26-1.27,0-1.3.47-2.58,1.31-3.46.7-.72,1.47-1.18,2.25-1.18,1.41,0,2.51,1.27,3.33,3.48.44,1.16.73,2.5.73,4.18,0,1.12-.14,1.9-.73,2.6-1.34.86-2.44,1.18-3.68,1.53-2.03.56-4.61,1.09-6.77,1.09-2.39,0-4.45-.37-5.99-1.35-1.55-1-2.57-2.62-2.57-4.76,0-1.42.28-2.83,1.03-4.25l.7.3c-.33,1-.51,1.9-.51,2.67,0,1.63.92,3.04,2.3,3.88,1.43.86,3.37,1.12,5.55,1.12,2.04,0,4.01-.3,5.95-.77.8-.19,1.61-.46,2.32-.77.44-.18,1.21-.51,1.21-.83,0-.12-.04-.26-.09-.39-.63.07-1.27.07-1.9.07ZM16.37,302.84c.72.53,1.41,1.16,2.09,1.88-.38.63-.86,1.21-1.45,1.72-.68-.65-1.36-1.21-2.06-1.81.47-.63.94-1.25,1.41-1.79ZM17.44,310.73c-1.15,0-2.09.9-2.09,1.56,0,1.42,2.23,1.86,4.99,1.85-.35-1.67-1.48-3.41-2.9-3.41Z"/><path class="cls-1" d="M9.64,358.72c1.29-1.32,2.69-2.55,3.84-3.29.98-.62,2.15-1.05,3.28-1.05.99,0,1.97.39,2.6.98.8.76,1.31,1.83,1.31,3.11,0,.33-.21,1.2-.4,1.86-.87,3.04-6.96,3.46-10.42,3.46-.87,0-1.61-.04-2.29-.07l-1.54,2.13-.14-.14c.11-.65.17-1.39.59-2.11l-1.33-.16c-.86-.69-1.71-1.42-2.53-2.29l.07-.21c1.61.33,3.23.54,4.84.6l.94-1.6c.23-.9.26-1.69.26-3.5,0-2.39-.24-6.06-.44-8.07-.05-.54-.1-1.18-.1-1.72,0-.79.49-1.35,1.36-2.02l.12.12c0,1.02.51,2.29,1.48,3.87l-1.13.88c.09,1.9.16,3.8.16,5.7,0,1.55-.23,2.58-.61,3.52h.07ZM10.26,361.55c3.79,0,6.2-.39,8.05-1.32.51-.25.86-.54,1.05-.81-.02-1.25-1.45-2.71-3.35-2.71-2.25,0-4.77,1.85-7.28,4.83h1.54ZM14.75,348.32c.72.53,1.41,1.16,2.09,1.88-.38.63-.86,1.21-1.45,1.72-.68-.65-1.36-1.21-2.06-1.81.47-.63.94-1.25,1.41-1.79Z"/><path class="cls-1" d="M11.16,407.7c-4.83,0-8.55-1.79-8.55-6.12,0-1.42.28-2.83,1.03-4.25l.7.3c-.33,1-.51,1.9-.51,2.67,0,3.55,3.47,5.01,7.85,5.01,2.04,0,4.03-.3,5.97-.76.8-.19,1.59-.4,2.3-.72.14-.05.17-.14.17-.19,0-.83-.84-2.55-1.75-4.34.42-.76.86-1.42,1.31-1.99h.09c.8,1.42,1.75,3.62,1.75,5.36,0,1.32-.44,2.11-.92,2.94-1.52.93-5.99,2.09-9.44,2.09ZM10.47,395.97c-.72-.69-1.34-1.25-2.04-1.83.45-.63.94-1.21,1.38-1.67.72.56,1.31,1.14,1.99,1.88-.49.7-.84,1.16-1.33,1.62ZM13.84,395.75c-.72-.69-1.34-1.25-2.04-1.83.45-.63.94-1.21,1.38-1.67.72.56,1.31,1.14,1.99,1.88-.49.7-.84,1.16-1.33,1.62Z"/><path class="cls-1" d="M18.21,443.46c-.33-1.49-.84-2.2-1.33-2.2-.77,0-1.85.51-2.78,1.25-.98.77-1.71,1.63-1.71,2.27,0,1.56,4.54,1.37,5.76,2.37.45.42.77.98.77,1.97,0,.93-.63,2.48-1.43,3.25-1.71,1.62-4.38,2.92-6.74,2.92-4.07,0-6.04-2.76-6.04-6.45,0-1.63.37-3.04.92-4.34l.68.23c-.38,1.18-.54,2.18-.54,3.08,0,3.32,2.25,5.12,5.13,5.12,1.08,0,2.95-.42,4.71-1.46,1.12-.67,2.16-1.49,2.16-1.76,0-.53-1.27-.93-2.72-1.14-1.54-.23-2.74-.56-3.2-1.07-.37-.4-.65-.9-.65-1.58,0-1.78.75-3.27,1.94-4.52,1.22-1.27,3.12-2.5,4.33-2.5.56,0,.96.28,1.27.93.28.6.42,1.18.42,1.65,0,.42-.42,1.34-.72,1.95l-.26.04ZM9.99,460.63c-.72-.69-1.34-1.25-2.04-1.83.45-.63.94-1.21,1.38-1.67.72.56,1.31,1.14,1.99,1.88-.49.7-.84,1.16-1.33,1.62ZM13.35,460.4c-.72-.69-1.34-1.25-2.04-1.83.45-.63.94-1.21,1.38-1.67.72.56,1.31,1.14,1.99,1.88-.49.7-.84,1.16-1.33,1.62Z"/></svg>