<?xml version="1.0" encoding="UTF-8"?><svg id="Layer_1" xmlns="http://www.w3.org/2000/svg" width="36" height="382" viewBox="0 0 36 382"><defs><style>.cls-1{fill:#3f8639;}</style></defs><path class="cls-1" d="M19.26,16.31c-.4,3.45-2.92,6.08-7.63,6.08-5.33,0-8.32-3.31-8.32-6.9,0-3.06,2.23-6.08,6.84-6.72.65-.14,1.3-.32,1.3-.97,0-.22-.11-.47-.25-.68-.22-.22-.36-.43-.36-.58,0-.11.11-.22.36-.22,1.01,0,2.27,1.01,2.27,1.37,0,.29-.43.54-.72,1.01,4.39.97,6.33,3.38,6.55,6.54l-.04,1.08ZM5.58,15.6c0,2.7,1.98,5.39,6.01,5.39,3.74,0,5.65-2.7,5.65-5.39s-1.91-5.39-5.65-5.39c-4.03,0-6.01,2.7-6.01,5.39ZM27,4.59c-.07-.68-1.15-1.55-3.2-2.44-.5-.18-.79-.4-.79-.58,0-.22.36-.4,1.19-.47,2.27.36,3.53.86,4.39,1.15.54.22.65.47.65.79,0,.29-.11.58-.11.97l-.04,21.17c0,6.61-.22,7.51-.86,8.88-.25.43-.5.65-.72.65-.29,0-.5-.43-.5-1.55V4.59Z"/><path class="cls-1" d="M10.29,51.43c-1.26.22-1.44.68-2.05.68-.86,0-4.03-1.44-4.03-1.98,0-.11.11-.14.36-.14.22,0,.47.04.79.11,1.51.18,2.99.29,4.68.29s3.6-.11,5.87-.22c.86-.07.83-.32,1.66-.32.76,0,2.41.18,2.41.65,0,.25-.47.65-.72,1.11-3.35,6.29-7.49,11.29-15.15,15.42-.65.36-1.08.5-1.26.5-.07,0-.11,0-.11-.07,0-.14.32-.47,1.08-1.01,6.44-4.39,11.05-10.21,13.1-15.31l-6.62.29ZM12.27,68.97c0-.65-.94-1.04-2.7-1.44-.47-.11-1.19-.14-1.19-.4,0-.11.14-.25.5-.47.36-.18.9-.22,1.55-.22.79,0,1.76.07,2.92.18,1.15.14,1.4.29,1.4.65,0,.22-.11.58-.11,1.08l-.07,5.36c0,1.15.5,1.44,1.22,1.44l9.68-.11c2.38-.29,1.3-1.04,4.14-1.04,2.16,0,2.7.58,2.7,1.15,0,.47-.47.9-1.22.9h-15.44c-2.56,0-3.38-1.47-3.38-2.73v-4.35ZM26.85,48.09c0-.9-1.44-1.55-2.99-2.19-.58-.18-1.12-.43-1.12-.65,0-.18.36-.32,1.37-.4,1.62.14,2.99.54,4,.93.9.32,1.12.61,1.12,1.01,0,.29-.14.65-.14,1.08v15.89c0,3.09-.47,4.35-.79,4.96-.25.43-.5.65-.72.65-.4,0-.72-.79-.72-2.26v-8.88l-5.76.14c-.9.14-.97.47-1.37.47-.47,0-2.66-.79-2.66-1.33,0-.18.18-.18,1.08-.18,2.34-.07,7.27-.07,8.71-.18v-9.06Z"/><path class="cls-1" d="M21.6,92.51c-.07-.72-1.08-1.26-2.63-2.01-.47-.22-.79-.43-.79-.58,0-.18.32-.32,1.12-.4,3.92.68,4.5,1.15,4.5,1.73,0,.22-.11.47-.11.75v12.26l4.57-.11v-13.3c-.07-.72-1.3-1.58-2.88-2.41-.36-.18-.76-.43-.76-.61s.32-.32,1.26-.32c4.03,1.01,4.64,1.47,4.64,2.05,0,.25-.11.54-.11.9l-.14,27.14c-.22,2.27-.9,3.45-1.37,3.45-.36,0-.65-.61-.65-1.83v-14.02l-4.57.11-.14,10.57c-.18,1.76-.76,2.8-1.26,2.8-.36,0-.68-.61-.68-2.05v-9.6c-4.86,2.12-10.12,3.88-13.86,4.31h-.04c-.43,0-1.19-.83-1.19-2.66l-.07-10.21c-.14-.83-1.3-1.19-2.95-1.65-.54-.11-.94-.29-.94-.47,0-.22.32-.4,1.15-.58.97,0,2.77.14,4.03.36.86.14,1.08.43,1.08.86,0,.4-.14.86-.18,1.47v9.56c0,.79.14,1.01,1.26,1.01,1.26,0,4.93-.36,11.7-2.66v-13.88Z"/><path class="cls-1" d="M17.17,152.65c-.07-.61-.61-.97-1.76-1.55-.36-.11-.58-.29-.58-.4,0-.18.32-.32,1.04-.36,3.13.32,3.64.54,3.64,1.01,0,.22-.11.47-.11.79l-.11,6c1.58,0,3.24-.11,7.23-.29,2.34-.32,2.16-.83,3.56-.83,1.58,0,4.21.4,4.21,1.55,0,.43-.54.79-1.48.79h-.36c-3.06-.29-6.77-.43-10.62-.43-4.25,0-8.67.18-12.56.43-1.44.36-1.76.75-2.45.75-.83,0-4.86-1.69-4.86-2.3,0-.14.18-.25.58-.25.14,0,.29,0,.43.04,2.77.43,5.51.61,9.25.61,1.48,0,3.1-.04,4.93-.07v-5.5ZM22.32,134.92c2.56-.18,1.19-1.15,5-1.15,1.66,0,2.38.61,2.38,1.15,0,1.04-1.4,1.04-2.3,1.04-4.86,0-11.91.32-16.38.61-.97.18-1.08.54-1.58.54-.61,0-3.85-1.44-3.85-2.08,0-.11.11-.18.36-.18.18,0,.43.04.76.11,1.84.32,4.1.43,6.51.43,3.74,0,7.6-.32,9.11-.47ZM21.99,140.46c.11-.72.18-1.19-1.37-2.12-.32-.18-.54-.36-.54-.54s.32-.29,1.12-.29c.72,0,3.92.9,3.92,1.65,0,.32-.36.72-.61,1.37-.86,2.16-2.16,5.54-2.92,7.01.76-.07,1.8-.14,2.52-.25,1.4-.22.43-.65,3.13-.65,1.83,0,2.38.61,2.38,1.04,0,.47-.61.9-1.62.9-.5,0-2.95-.04-3.49-.04-4.46,0-8.96.22-13.43.61-.94.18-1.12.47-1.55.47-.54,0-3.56-1.4-3.56-2.05,0-.11.11-.14.36-.14.18,0,.43.04.76.11,1.44.29,3.35.4,5.44.4,2.38,0,5.08-.14,7.74-.36.43-.86,1.26-4.17,1.73-7.12ZM15.12,145.21c-.18,1.26-.65,1.83-1.08,1.83-.4,0-.79-.47-1.01-1.33-.32-1.22-.86-2.91-2.66-6.69-.14-.29-.22-.5-.22-.68,0-.14.04-.25.18-.25s.4.14.68.4c2.59,2.37,3.96,3.7,4.07,5.46l.04,1.26Z"/><path class="cls-1" d="M26.85,200.85c1.37-.07,1.22-.79,3.2-.79.94,0,3.92.11,3.92,1.37,0,.43-.47.83-1.22.83h-.18c-1.84-.11-3.96-.14-6.05-.14-1.15,0-6.66.04-7.92.04-3.17.04-7.42.32-9.54.36-1.37.22-1.51.75-2.27.75-.86,0-4.89-1.73-4.89-2.3,0-.11.14-.18.43-.18.18,0,.4,0,.68.07,1.69.4,4.82.58,8.75.58s8.78-.18,13.64-.4l1.44-.18ZM8.5,180.64c-.04-.72-1.15-1.29-2.59-1.76-.43-.07-.86-.29-.86-.5,0-.32.94-.5,1.4-.5,1.55,0,3.71.43,4.71.79,2.88-.04,7.13-.14,11.55-.29,1.87-.36,1.3-1.08,3.92-1.08s2.74.86,2.74,1.11c0,.4-.47.75-1.19.75-6.01.22-13.68.4-16.81.54-.32.21-.54,0-.54.57v4.96c3.02-.07,6.8-.11,11.91-.29,1.55-.22.4-.86,3.74-.9,1.15,0,1.66.43,1.66.86s-.5.86-1.3.9c-2.45.11-11.45.25-16.02.4v4.64c.04,1.22.4,1.22,2.99,1.22,2.74,0,5.47-.07,9.07-.29,2.23-.18.94-.97,4.39-.97.72,0,2.23,0,2.23.9,0,.47-.58.97-1.44.97-4.17.18-8.24.29-16.13.4-2.23,0-3.31-.9-3.35-2.52l-.11-9.92Z"/><path class="cls-1" d="M21.02,222.41c0-.5-.36-.86-1.04-1.29-.32-.14-.54-.32-.54-.47,0-.18.32-.32,1.08-.32.14,0,3.35.83,3.35,1.62,0,.22-.22.47-.47.9-.97,1.58-2.05,3.52-2.92,4.93.68-.04,1.3-.07,1.94-.18,1.4-.25.68-.9,3.13-.9.9,0,2.81,0,2.81,1.08,0,.58-.68.83-1.37.83-2.48,0-5.65.04-7.81.11,0,1.8-.07,3.16-.32,4.6,2.88.11,5.8-.11,8.17-.29,1.62-.21,1.4-.68,3.1-.68.9,0,3.82,0,3.82,1.15,0,.47-.54.9-1.37.9-.11,0-.22-.04-.32-.04-1.8-.07-5.18-.14-9-.14-4.9,0-10.51.11-14.4.54-1.19.25-1.44.61-2.09.61-.72,0-4.64-1.44-4.64-2.08,0-.14.14-.22.47-.22.14,0,.32,0,.5.04,2.05.4,4.71.54,7.63.54,2.02,0,4.18-.07,6.3-.22-.11-1.4-.18-2.95-.18-4.6-.11.04-4.18.25-4.97.32-.97.18-1.08.58-1.58.58-.65,0-3.56-1.4-3.56-1.83,0-.11.18-.18.47-.18.14,0,.29,0,.47.04,1.62.25,3.53.32,5.51.32,2.16,0,4.39-.11,6.23-.22.9-2.48,1.62-5.28,1.62-5.43ZM21.56,218.02c2.02-.18,1.3-.97,3.89-.97.5,0,3.09,0,3.09,1.19,0,.07-.04.86-1.58.86-5,0-12.81.25-15.44.36-.97.18-1.08.54-1.58.54s-3.92-1.33-3.92-2.01c0-.11.11-.14.36-.14.18,0,.47.04.83.11,1.91.32,3.82.43,5.9.43.86,0,7.34-.14,8.46-.36ZM10.47,244.3c-.04-.43-.76-.65-1.94-.97-.32-.07-.65-.18-.65-.32,0-.18.72-.5,1.37-.5,1.55,0,3.31.29,3.78.47,3.35,0,5.15-.11,8.57-.22.9-.07,1.04-.18,1.98-.32.11-.75.14-2.16.22-3.95-2.38.07-7.05.18-10.51.36-1.04.22-1.22.58-1.84.58-.72,0-3.49-1.15-3.49-1.58,0-.11.14-.18.5-.18.14,0,.32,0,.54.04,1.26.14,3.02.18,5,.18,2.84,0,6.16-.11,8.96-.32.58-.18.61-.29,1.22-.29,2.3,0,2.3.4,2.3.54,0,.29-.32.68-.47,1.04-.4,1.11-.97,2.73-1.15,3.42.97.18,1.48.54,1.48.83,0,.25-.43.47-1.26.47-2.74.07-8.03.22-11.73.32-.36.18-.65.14-.65.54v3.13c0,.68.36.83.9.83.72,0,1.76.04,3.02.04,1.76,0,3.92-.04,6.05-.07,2.16-.25,1.44-.94,3.67-.94,1.01,0,2.81,0,2.81,1.04,0,.43-.47.83-1.26.83h-14.22c-2.63,0-3.2-.93-3.2-1.98v-2.98ZM14.72,225.86c-.22.97-.72,1.47-1.19,1.47-.32,0-.61-.22-.76-.72-.25-1.22-.9-3.27-1.55-4.57-.29-.47-.47-.83-.47-.97,0-.07.04-.14.11-.14.9,0,3.56,2.77,3.85,4.21v.72Z"/><path class="cls-1" d="M27,263.38c-.07-.68-1.15-1.55-3.2-2.44-.5-.18-.79-.4-.79-.58,0-.22.36-.4,1.19-.47,2.27.36,3.53.86,4.39,1.15.54.22.65.47.65.79,0,.29-.11.58-.11.97l-.04,21.17c0,6.61-.22,7.51-.86,8.88-.25.43-.5.65-.72.65-.29,0-.5-.43-.5-1.55v-11.54c-5.69,3.06-15.8,5.86-18.21,5.86-.79,0-1.84-1.4-1.84-2.7l-.11-6.26c-.11-1.22-1.37-1.55-2.59-1.91-.47-.11-.68-.29-.68-.47,0-.25.4-.5,1.33-.68,1.87.07,3.67.32,4.43.68,1.87-.04,4-.18,5.43-.32.94-.11,1.12-.29,1.91-.54.11-1.91.32-4.6.43-6.9-2.52.11-4.97.29-7.27.58-.94.22-1.08.58-1.58.58-.68,0-3.71-1.37-3.71-1.87,0-.14.14-.22.5-.22.11,0,.25,0,.43.04,1.37.18,2.81.25,4.43.25,1.73,0,3.64-.07,5.94-.25,1.33-.14.47-.47,2.77-.47,1.19,0,1.84.22,1.84.54,0,.36-.58.79-.83,1.22-.36,1.55-1.15,4.85-1.51,6.4,1.15.14,1.73.54,1.73.9,0,.29-.36.5-1.01.58-2.63.07-6.33.22-8.67.47-.68.25-.9,0-.9.75v.18c-.04,2.59-.04,3.99-.07,6.29.07.5.29.83.94.83.11,0,.25,0,.4-.04,4.28-.43,10.91-1.62,16.49-4.39v-16.18Z"/><path class="cls-1" d="M32.4,331.68c-2.81-.18-6.8-.36-11.27-.36-6.26,0-9.39.29-12.45.58-1.08.11-1.48.5-2.3.5-.72,0-1.8-.32-3.96-1.55-.5-.25-.76-.47-.76-.65,0-.11.11-.18.43-.18.18,0,.47.04.79.11,1.87.36,4.39.47,7.38.47,2.05,0,4.32-.07,6.77-.14-.04-.72-.04-2.01-.11-8.41-4.72-.43-7.34-3.88-7.34-7.33,0-3.16,2.2-6.29,6.98-7.05.43,0,1.01-.36,1.01-.9,0-.18-.07-.4-.25-.61-.32-.29-.5-.5-.5-.65s.14-.22.47-.22c1.22,0,2.27.72,2.27,1.15,0,.4-.54.72-.58,1.22,5.11.75,7.49,3.99,7.49,7.23s-2.48,6.62-7.24,7.12c0,5.21,0,6.69-.07,8.34,1.66-.04,4.54-.11,7.7-.29,1.4-.07,1.19-.68,2.88-.68.86,0,4.21.18,4.21,1.47,0,.43-.5.83-1.37.83h-.18ZM11.63,314.75c0,2.84,2.12,5.68,6.37,5.68s6.33-2.84,6.33-5.68-2.12-5.68-6.33-5.68-6.37,2.84-6.37,5.68Z"/><path class="cls-1" d="M10.08,354.64c.65-.11,1.19-.5,1.19-1.11,0-.22-.07-.47-.22-.75-.22-.25-.32-.47-.32-.61,0-.18.11-.25.36-.25.86,0,2.2.93,2.2,1.47,0,.4-.5.76-.94,1.4,4.17.79,6.12,3.59,6.12,6.4,0,3.34-2.74,6.69-7.7,6.69s-7.56-3.09-7.56-6.69c0-2.91,2.16-5.82,6.88-6.54ZM5.36,361.29c0,2.55,1.84,5.11,5.47,5.11s5.54-2.55,5.54-5.11-1.84-5.1-5.54-5.1-5.47,2.55-5.47,5.1ZM25.38,349.72c-.07-.75-1.73-1.8-3.1-2.34-.58-.18-.9-.4-.9-.58,0-.22.4-.36,1.33-.4.36,0,5.11.79,5.11,1.83,0,.29-.14.65-.14,1.19l-.04,8.95c.43-.04.97-.07,1.76-.11,1.3-.22.83-.86,3.17-.86.83,0,2.3,0,2.3.97,0,.43-.4.83-1.08.83l-6.16.14.04,8.34c.29,0,1.01-.04,1.55-.04,1.37-.29.68-.83,3.82-.83,1.55,0,1.76.75,1.76,1.01,0,.43-.43.86-1.15.86l-6.01.07-.04,5.43c-.07,3.56-.94,5.46-1.55,5.46-.36,0-.68-.54-.68-1.91v-28.04Z"/></svg>