<?xml version="1.0" encoding="UTF-8"?><svg id="Layer_1" xmlns="http://www.w3.org/2000/svg" width="18.5" height="644" viewBox="0 0 18.5 644"><defs><style>.cls-1{fill:#3f8639;}</style></defs><path class="cls-1" d="M17.45,17.22c0,7.96-2.96,12.35-8.15,12.35-4.58,0-7.68-4.29-7.75-12.03,0-7.85,3.39-12.17,8.15-12.17s7.75,4.39,7.75,11.85ZM4.72,17.58c0,6.09,1.88,9.54,4.76,9.54,3.25,0,4.8-3.78,4.8-9.76s-1.48-9.54-4.76-9.54c-2.78,0-4.8,3.38-4.8,9.76Z"/><path class="cls-1" d="M2.63,68.75c.9.58,2.99,1.48,5.19,1.48,4.07,0,5.34-2.59,5.3-4.54-.04-3.28-2.99-4.68-6.06-4.68h-1.77v-2.38h1.77c2.31,0,5.23-1.19,5.23-3.96,0-1.87-1.19-3.53-4.11-3.53-1.88,0-3.68.83-4.69,1.55l-.83-2.3c1.23-.9,3.61-1.8,6.13-1.8,4.62,0,6.71,2.74,6.71,5.58,0,2.41-1.44,4.47-4.33,5.51v.07c2.88.58,5.23,2.74,5.23,6.01,0,3.75-2.92,7.02-8.54,7.02-2.63,0-4.94-.83-6.09-1.58l.87-2.45Z"/><path class="cls-1" d="M17.45,103.63c0,7.96-2.96,12.35-8.15,12.35-4.58,0-7.68-4.29-7.75-12.03,0-7.85,3.39-12.17,8.15-12.17s7.75,4.39,7.75,11.85ZM4.72,103.99c0,6.09,1.88,9.54,4.76,9.54,3.25,0,4.8-3.78,4.8-9.76s-1.48-9.54-4.76-9.54c-2.78,0-4.8,3.38-4.8,9.76Z"/><path class="cls-1" d="M15.86,138.05H6.92l-.9,6.01c.54-.07,1.05-.14,1.91-.14,1.8,0,3.61.4,5.05,1.26,1.84,1.04,3.35,3.06,3.35,6.01,0,4.57-3.64,8-8.73,8-2.56,0-4.72-.72-5.84-1.44l.79-2.41c.97.58,2.88,1.3,5.01,1.3,2.99,0,5.55-1.95,5.55-5.08-.04-3.02-2.05-5.19-6.74-5.19-1.33,0-2.38.14-3.25.25l1.51-11.24h11.21v2.67Z"/><path class="cls-1" d="M1.58,196.06c0-2.95,1.77-5.04,4.65-6.27l-.04-.11c-2.6-1.22-3.71-3.24-3.71-5.26,0-3.71,3.14-6.23,7.25-6.23,4.54,0,6.82,2.84,6.82,5.76,0,1.98-.97,4.1-3.86,5.47v.11c2.92,1.15,4.72,3.21,4.72,6.05,0,4.07-3.5,6.81-7.97,6.81-4.9,0-7.86-2.92-7.86-6.34ZM14.2,195.91c0-2.84-1.98-4.21-5.16-5.11-2.74.79-4.22,2.59-4.22,4.83-.11,2.38,1.69,4.47,4.69,4.47s4.69-1.76,4.69-4.18ZM5.48,184.21c0,2.34,1.77,3.6,4.47,4.32,2.02-.68,3.57-2.12,3.57-4.25,0-1.87-1.12-3.82-3.97-3.82-2.63,0-4.07,1.73-4.07,3.75Z"/><path class="cls-1" d="M2.63,241.57c.9.58,2.99,1.48,5.19,1.48,4.07,0,5.34-2.59,5.3-4.54-.04-3.28-2.99-4.68-6.06-4.68h-1.77v-2.38h1.77c2.31,0,5.23-1.19,5.23-3.96,0-1.87-1.19-3.53-4.11-3.53-1.88,0-3.68.83-4.69,1.55l-.83-2.3c1.23-.9,3.61-1.8,6.13-1.8,4.62,0,6.71,2.74,6.71,5.58,0,2.41-1.44,4.47-4.33,5.51v.07c2.88.58,5.23,2.74,5.23,6.01,0,3.75-2.92,7.02-8.54,7.02-2.63,0-4.94-.83-6.09-1.58l.87-2.45Z"/><path class="cls-1" d="M1.87,288.41v-1.94l2.49-2.41c5.99-5.69,8.69-8.71,8.73-12.24,0-2.38-1.15-4.57-4.65-4.57-2.13,0-3.89,1.08-4.98,1.98l-1.01-2.23c1.62-1.37,3.93-2.38,6.63-2.38,5.05,0,7.17,3.46,7.17,6.81,0,4.32-3.14,7.81-8.08,12.57l-1.88,1.73v.07h10.53v2.63H1.87Z"/><path class="cls-1" d="M17.45,319.66c0,7.96-2.96,12.35-8.15,12.35-4.58,0-7.68-4.29-7.75-12.03,0-7.85,3.39-12.17,8.15-12.17s7.75,4.39,7.75,11.85ZM4.72,320.02c0,6.09,1.88,9.54,4.76,9.54,3.25,0,4.8-3.78,4.8-9.76s-1.48-9.54-4.76-9.54c-2.78,0-4.8,3.38-4.8,9.76Z"/><path class="cls-1" d="M11.68,374.82v-6.37H.79v-2.09l10.46-14.94h3.43v14.55h3.28v2.48h-3.28v6.37h-2.99ZM11.68,365.96v-7.81c0-1.22.04-2.45.11-3.67h-.11c-.72,1.37-1.3,2.38-1.95,3.46l-5.73,7.96v.07h7.68Z"/><path class="cls-1" d="M3.71,415.79c.68.07,1.48,0,2.56-.11,1.84-.25,3.57-1.01,4.9-2.27,1.55-1.4,2.67-3.46,3.1-6.23h-.11c-1.3,1.58-3.17,2.52-5.52,2.52-4.22,0-6.92-3.17-6.92-7.17,0-4.43,3.21-8.32,8-8.32s7.75,3.89,7.75,9.87c0,5.15-1.73,8.75-4.04,10.98-1.8,1.76-4.29,2.84-6.81,3.13-1.15.18-2.16.22-2.92.18v-2.59ZM4.87,402.32c0,2.92,1.77,4.97,4.51,4.97,2.13,0,3.79-1.04,4.62-2.45.18-.29.29-.65.29-1.15,0-4-1.48-7.06-4.8-7.06-2.7,0-4.62,2.38-4.62,5.69Z"/><path class="cls-1" d="M1.58,455.28c0-2.95,1.77-5.04,4.65-6.27l-.04-.11c-2.6-1.22-3.71-3.24-3.71-5.26,0-3.71,3.14-6.23,7.25-6.23,4.54,0,6.82,2.84,6.82,5.76,0,1.98-.97,4.1-3.86,5.47v.11c2.92,1.15,4.72,3.21,4.72,6.05,0,4.07-3.5,6.81-7.97,6.81-4.9,0-7.86-2.92-7.86-6.34ZM14.2,455.14c0-2.84-1.98-4.21-5.16-5.11-2.74.79-4.22,2.59-4.22,4.83-.11,2.38,1.69,4.47,4.69,4.47s4.69-1.76,4.69-4.18ZM5.48,443.44c0,2.34,1.77,3.6,4.47,4.32,2.02-.68,3.57-2.12,3.57-4.25,0-1.87-1.12-3.82-3.97-3.82-2.63,0-4.07,1.73-4.07,3.75Z"/><path class="cls-1" d="M2.63,500.79c.9.58,2.99,1.48,5.19,1.48,4.07,0,5.34-2.59,5.3-4.54-.04-3.28-2.99-4.68-6.06-4.68h-1.77v-2.38h1.77c2.31,0,5.23-1.19,5.23-3.96,0-1.87-1.19-3.53-4.11-3.53-1.88,0-3.68.83-4.69,1.55l-.83-2.3c1.23-.9,3.61-1.8,6.13-1.8,4.62,0,6.71,2.74,6.71,5.58,0,2.41-1.44,4.47-4.33,5.51v.07c2.88.58,5.23,2.74,5.23,6.01,0,3.75-2.92,7.02-8.54,7.02-2.63,0-4.94-.83-6.09-1.58l.87-2.45Z"/><path class="cls-1" d="M11.68,547.63v-6.37H.79v-2.09l10.46-14.94h3.43v14.55h3.28v2.48h-3.28v6.37h-2.99ZM11.68,538.78v-7.81c0-1.22.04-2.45.11-3.67h-.11c-.72,1.37-1.3,2.38-1.95,3.46l-5.73,7.96v.07h7.68Z"/><path class="cls-1" d="M17.45,578.88c0,7.96-2.96,12.35-8.15,12.35-4.58,0-7.68-4.29-7.75-12.03,0-7.85,3.39-12.17,8.15-12.17s7.75,4.39,7.75,11.85ZM4.72,579.24c0,6.09,1.88,9.54,4.76,9.54,3.25,0,4.8-3.78,4.8-9.76s-1.48-9.54-4.76-9.54c-2.78,0-4.8,3.38-4.8,9.76Z"/><path class="cls-1" d="M1.87,634.04v-1.94l2.49-2.41c5.99-5.69,8.69-8.71,8.73-12.24,0-2.38-1.15-4.57-4.65-4.57-2.13,0-3.89,1.08-4.98,1.98l-1.01-2.23c1.62-1.37,3.93-2.38,6.63-2.38,5.05,0,7.17,3.46,7.17,6.81,0,4.32-3.14,7.81-8.08,12.57l-1.88,1.73v.07h10.53v2.63H1.87Z"/></svg>