<?xml version="1.0" encoding="UTF-8"?><svg id="Layer_1" xmlns="http://www.w3.org/2000/svg" width="35.64" height="687.35" viewBox="0 0 35.64 687.35"><defs><style>.cls-1{fill:#3f8639;}</style></defs><path class="cls-1" d="M25.03,3.08v21.06c0,1.55.04,3.31.14,4.5h-2.84l-.14-3.02h-.07c-.97,1.94-3.1,3.42-5.94,3.42-4.21,0-7.45-3.56-7.45-8.85-.04-5.79,3.56-9.36,7.81-9.36,2.66,0,4.46,1.26,5.26,2.66h.07V3.08h3.17ZM21.86,18.3c0-.4-.04-.94-.14-1.33-.47-2.02-2.2-3.67-4.57-3.67-3.28,0-5.22,2.88-5.22,6.73,0,3.53,1.73,6.44,5.15,6.44,2.12,0,4.07-1.4,4.64-3.78.11-.43.14-.86.14-1.37v-3.02Z"/><path class="cls-1" d="M5.12,59.13c0-1.8-.04-3.28-.14-4.72h2.77l.14,2.81h.11c.97-1.66,2.59-3.2,5.47-3.2,2.38,0,4.18,1.44,4.93,3.49h.07c.54-.97,1.22-1.73,1.94-2.27,1.04-.79,2.2-1.22,3.85-1.22,2.3,0,5.72,1.51,5.72,7.56v10.26h-3.1v-9.86c0-3.35-1.22-5.36-3.78-5.36-1.8,0-3.2,1.33-3.74,2.88-.14.43-.25,1.01-.25,1.58v10.76h-3.1v-10.44c0-2.77-1.22-4.79-3.64-4.79-1.98,0-3.42,1.58-3.92,3.17-.18.47-.25,1.01-.25,1.55v10.51h-3.1v-12.71Z"/><path class="cls-1" d="M24.49,114.39c-.83.43-2.66,1.01-5,1.01-5.26,0-8.67-3.56-8.67-8.89s3.67-9.25,9.36-9.25c1.87,0,3.53.47,4.39.9l-.72,2.45c-.76-.43-1.94-.83-3.67-.83-4,0-6.16,2.95-6.16,6.59,0,4.03,2.59,6.51,6.05,6.51,1.8,0,2.99-.47,3.89-.86l.54,2.38Z"/><path class="cls-1" d="M11.51,163.27c1.44-.11,2.7-.5,3.46-1.33.86-1.01,1.19-2.38,1.19-6.55v-14.58h3.17v15.8c0,3.38-.54,5.58-2.09,7.16-1.4,1.4-3.71,1.98-5.4,1.98l-.32-2.48ZM19.68,135.92c.04,1.04-.72,1.94-1.98,1.94-1.19,0-1.94-.9-1.94-1.94,0-1.12.83-1.98,2.02-1.98s1.91.86,1.91,1.98Z"/><path class="cls-1" d="M12.7,184.01l3.42,9.79c.58,1.58,1.04,3.02,1.4,4.46h.11c.4-1.44.9-2.88,1.48-4.46l3.38-9.79h3.31l-6.84,17.42h-3.02l-6.62-17.42h3.38Z"/><path class="cls-1" d="M14.82,235.2h.07c.43-.61,1.04-1.37,1.55-1.98l5.11-6.01h3.82l-6.73,7.16,7.67,10.26h-3.85l-6.01-8.35-1.62,1.8v6.55h-3.13v-25.56h3.13v16.13Z"/><path class="cls-1" d="M14.25,275.85c0-2.05-.04-3.82-.14-5.44h2.77l.11,3.42h.14c.79-2.34,2.7-3.82,4.82-3.82.36,0,.61.04.9.11v2.99c-.32-.07-.65-.11-1.08-.11-2.23,0-3.82,1.69-4.25,4.07-.07.43-.14.94-.14,1.48v9.29h-3.13v-11.99Z"/><path class="cls-1" d="M5.12,318.33c0-1.8-.04-3.28-.14-4.72h2.77l.14,2.81h.11c.97-1.66,2.59-3.2,5.47-3.2,2.38,0,4.18,1.44,4.93,3.49h.07c.54-.97,1.22-1.73,1.94-2.27,1.04-.79,2.2-1.22,3.85-1.22,2.3,0,5.72,1.51,5.72,7.56v10.26h-3.1v-9.86c0-3.35-1.22-5.36-3.78-5.36-1.8,0-3.2,1.33-3.74,2.88-.14.43-.25,1.01-.25,1.58v10.76h-3.1v-10.44c0-2.77-1.22-4.79-3.64-4.79-1.98,0-3.42,1.58-3.92,3.17-.18.47-.25,1.01-.25,1.55v10.51h-3.1v-12.71Z"/><path class="cls-1" d="M15.89,348.68h3.17v25.56h-3.17v-25.56Z"/><path class="cls-1" d="M25.03,391.88v21.06c0,1.55.04,3.31.14,4.5h-2.84l-.14-3.02h-.07c-.97,1.94-3.1,3.42-5.94,3.42-4.21,0-7.45-3.56-7.45-8.85-.04-5.79,3.56-9.36,7.81-9.36,2.66,0,4.46,1.26,5.26,2.66h.07v-10.4h3.17ZM21.86,407.1c0-.4-.04-.94-.14-1.33-.47-2.02-2.2-3.67-4.57-3.67-3.28,0-5.22,2.88-5.22,6.73,0,3.53,1.73,6.44,5.15,6.44,2.12,0,4.07-1.4,4.64-3.78.11-.43.14-.86.14-1.37v-3.02Z"/><path class="cls-1" d="M19.45,438.32c.04,1.08-.76,1.94-2.02,1.94-1.12,0-1.91-.86-1.91-1.94s.83-1.98,1.98-1.98,1.94.86,1.94,1.98ZM15.92,460.64v-17.42h3.17v17.42h-3.17Z"/><path class="cls-1" d="M15.2,503.84v-15.01h-2.45v-2.41h2.45v-.83c0-2.45.54-4.68,2.02-6.08,1.19-1.15,2.77-1.62,4.25-1.62,1.12,0,2.09.25,2.7.5l-.43,2.45c-.47-.22-1.12-.4-2.02-.4-2.7,0-3.38,2.38-3.38,5.04v.94h4.21v2.41h-4.21v15.01h-3.13Z"/><path class="cls-1" d="M11.51,552.07c1.44-.11,2.7-.5,3.46-1.33.86-1.01,1.19-2.38,1.19-6.55v-14.58h3.17v15.8c0,3.38-.54,5.58-2.09,7.16-1.4,1.4-3.71,1.98-5.4,1.98l-.32-2.48ZM19.68,524.72c.04,1.04-.72,1.94-1.98,1.94-1.19,0-1.94-.9-1.94-1.94,0-1.12.83-1.98,2.02-1.98s1.91.86,1.91,1.98Z"/><path class="cls-1" d="M5.12,577.53c0-1.8-.04-3.28-.14-4.72h2.77l.14,2.81h.11c.97-1.66,2.59-3.2,5.47-3.2,2.38,0,4.18,1.44,4.93,3.49h.07c.54-.97,1.22-1.73,1.94-2.27,1.04-.79,2.2-1.22,3.85-1.22,2.3,0,5.72,1.51,5.72,7.56v10.26h-3.1v-9.86c0-3.35-1.22-5.36-3.78-5.36-1.8,0-3.2,1.33-3.74,2.88-.14.43-.25,1.01-.25,1.58v10.76h-3.1v-10.44c0-2.77-1.22-4.79-3.64-4.79-1.98,0-3.42,1.58-3.92,3.17-.18.47-.25,1.01-.25,1.55v10.51h-3.1v-12.71Z"/><path class="cls-1" d="M10.14,607.88h3.17v10.87h.07c.5-.9,1.3-1.69,2.27-2.23.94-.54,2.05-.9,3.24-.9,2.34,0,6.08,1.44,6.08,7.45v10.37h-3.17v-10.01c0-2.81-1.04-5.18-4.03-5.18-2.05,0-3.67,1.44-4.25,3.17-.18.43-.22.9-.22,1.51v10.51h-3.17v-25.56Z"/><path class="cls-1" d="M14.82,667.2h.07c.43-.61,1.04-1.37,1.55-1.98l5.11-6.01h3.82l-6.73,7.16,7.67,10.26h-3.85l-6.01-8.35-1.62,1.8v6.55h-3.13v-25.56h3.13v16.13Z"/></svg>