<?xml version="1.0" encoding="UTF-8"?><svg id="Layer_1" xmlns="http://www.w3.org/2000/svg" width="36" height="603.64" viewBox="0 0 36 603.64"><defs><style>.cls-1{fill:#3f8639;}</style></defs><path class="cls-1" d="M30.51,32.73c-3.17.58-7.34.83-10.94.83-3.02,0-5.65-.18-7.06-.47-4.36-.97-6.23-3.71-6.23-6.88,0-2.77,1.55-5.54,3.67-7.7l2.09,1.08c-2.02,2.09-3.17,4.39-3.17,6.41s1.4,4,4.5,4.68c1.26.29,3.38.43,5.87.43,3.49,0,7.67-.29,11.09-.97l.18,2.59ZM14.35,14.55c1.87-1.44,4.43-3.2,6.37-4.18v-.04c-2.74.32-9,.47-12.99.43,0-.68,0-1.87-.04-2.52.79.04,14.61.25,20.52-1.15l.29,2.66c-4.28.5-9.79,4.25-12.09,6.08l-2.05-1.29Z"/><path class="cls-1" d="M3.12,54.44c2.92,0,5.58-.25,6.77-.54.07-2.16.11-3.35.25-6.62l3.71.29c-.07.4-.4.65-1.01.72-.14,1.58-.29,3.82-.36,5.15l1.12.43c-.86,1.73-1.22,3.85-1.44,5.15,3.96-3.71,8.35-6.34,11.34-6.34,3.38,0,5.08,2.38,5.08,6.55,0,.47-.04.94-.07,1.4-.25,3.17-.61,7.67-.61,10.55,0,2.16.25,3.31,1.76,3.31,1.08,0,3.24-1.08,4.79-2.41.07.72.36,2.2.5,2.74-1.84,1.33-4,2.34-5.65,2.34-3.02,0-4.03-1.8-4.03-5.54,0-1.87.65-11.77.65-11.81,0-3.13-1.08-4.54-2.84-4.54-2.7,0-7.24,2.92-10.98,6.88,0,5.22,0,11.63.04,16.52h-2.52c.04-2.09,0-12.35.04-14.65-1.26,2.52-3.71,5.79-6.55,8.68l-1.3-2.27c2.99-2.81,6.33-7.16,7.92-10.87,0-1.04.04-2.02.07-3.17-1.26.29-3.89.58-6.62.61l-.04-2.56Z"/><path class="cls-1" d="M5.02,120.83c-1.12-2.59-1.55-7.96-1.55-12.67s.76-10.8,1.94-16.81l3.49.68c-.07.36-.43.61-.94.65-1.29,4.93-2.09,11.34-2.09,15.51,0,2.74.04,5.47.32,6.8.79-2.16,2.23-5.62,2.99-7.31l1.62,1.51c-1.19,2.45-3.71,7.92-3.71,9.61,0,.5.11,1.04.36,1.73l-2.45.29ZM14.17,99.63c3.02.04,6.05.07,9.07-.14-.14-3.1-.25-5.76-.32-8.42l3.64.11c-.04.36-.36.65-.94.76.04,2.3.11,4.64.18,7.38,2.84-.29,5.15-.79,7.05-1.44l.32,2.52c-1.73.54-4.21,1.04-7.27,1.3.14,4,.32,8.21.43,10.51,2.74,1.12,5.47,2.88,7.34,4.57l-1.4,2.3c-1.48-1.48-3.6-3.06-5.83-4.1-.04,3.06-.61,6.48-6.01,6.48-4.21,0-7.02-2.02-7.02-5.18,0-3.67,3.71-5.29,7.02-5.29,1.12,0,2.3.14,3.42.47-.11-2.27-.32-6.05-.5-9.58-1.12.07-2.63.11-3.67.11h-5.47l-.04-2.34ZM24.03,113.77c-1.15-.36-2.38-.65-3.56-.65-2.2,0-4.82.79-4.82,3.06,0,2.02,2.16,3.02,4.79,3.02s3.64-1.3,3.64-4.17l-.04-1.26Z"/><path class="cls-1" d="M11.18,148.12c1.4,1.12,5.44,4.82,6.41,5.76l-1.55,1.91c-.9-1.19-3.17-3.56-4.86-5.22v15.48h-2.38v-16.59c-1.73,4.07-4.07,8.21-6.19,10.69-.29-.65-.9-1.66-1.33-2.27,2.52-2.7,5.4-7.78,7.05-12.2H1.71v-2.34h7.09v-6.12c-2.16.58-4.43,1.04-6.59,1.48-.11-.5-.47-1.33-.79-1.84,5-.97,10.76-2.56,13.79-4.25l2.23,1.8c-.11.11-.25.14-.4.14-.11,0-.18,0-.29-.04-1.48.72-3.42,1.44-5.58,2.05v6.77h6.26v2.34h-6.26v2.45ZM29,150.53c2.66,4.71,5.26,10.83,6.05,14.72l-2.45.86c-.22-1.01-.54-2.2-.94-3.49-6.08.68-12.38,1.37-16.34,1.73-.04.29-.25.47-.5.5l-.97-2.95,3.46-.25c2.23-7.74,4.68-19.62,5.98-28.33l3.46.76c-.07.29-.43.5-.9.58-1.37,7.99-3.78,19.04-5.98,26.78,3.38-.25,7.24-.61,11.05-.94-1.12-3.1-2.59-6.44-4.14-9.25l2.23-.72Z"/><path class="cls-1" d="M20.25,182.36c-.14.32-.43.58-.9.58-1.3,11.19-5.04,20.95-11.01,20.95-3.02,0-5.76-3.02-5.76-8.71,0-8.64,6.73-15.87,16.2-15.87,10.4,0,14.9,6.59,14.9,13.61,0,8.57-4.97,12.71-13.68,14.72-.32-.58-.94-1.55-1.51-2.2,8.28-1.58,12.53-5.62,12.53-12.42,0-5.94-3.82-11.34-12.24-11.34-.36,0-.76.04-1.08.07l2.56.61ZM16.8,181.89c-7.27.9-11.77,6.91-11.77,13.21,0,3.85,1.66,6.26,3.38,6.26,4.36,0,7.49-9.61,8.39-19.47Z"/><path class="cls-1" d="M11.76,235.96c-1.62,4.21-4,7.92-6.77,10.62l-2.09-1.37c2.7-2.52,5.04-5.94,6.52-10.15l2.34.9ZM19.46,230.42v16.88c0,3.92-2.81,3.92-8.57,3.92-.14-.65-.43-1.66-.76-2.41,1.04.04,2.2.04,3.17.04h2.09c1.01,0,1.48-.65,1.48-1.51v-16.92H4.63v-2.45h12.24v-7.6l3.42.18c-.04.36-.29.61-.83.68v6.73h12.17v2.45h-12.17ZM25.9,234.81c2.63,2.92,5.65,7.16,7.6,10.47l-2.3,1.33c-1.76-3.28-4.93-7.92-7.34-10.66l2.05-1.15ZM30.58,218.21c2.2,0,4,1.8,4,4.03s-1.8,4.03-4,4.03-4.07-1.8-4.07-4.03,1.87-4.03,4.07-4.03ZM33.39,222.25c0-1.58-1.26-2.88-2.81-2.88s-2.88,1.3-2.88,2.88,1.3,2.84,2.88,2.84,2.81-1.37,2.81-2.84Z"/><path class="cls-1" d="M2.94,277h30.06v2.56H4.31c-.22.36-.68.61-1.15.68l-.22-3.24Z"/><path class="cls-1" d="M27.05,325.57c-3.67-1.98-8.71-4.32-12.63-5.87v18h-2.7v-31.28l3.64.22c-.04.4-.32.65-.94.76v10.51l.54-.76c4.21,1.55,9.79,4.03,13.53,6.01l-1.44,2.41Z"/><path class="cls-1" d="M31.52,354.22c-.11.18-.25.32-.47.4-2.84,13.64-9.9,21.74-21.67,25.88-.4-.61-1.19-1.58-1.66-2.09,11.16-3.64,18-11.66,20.16-22.57H4.34v-2.41h24.48l.5-.32,2.2,1.12Z"/><path class="cls-1" d="M30.04,407.61h-8.57l.14,13.35c0,3.13-2.66,3.2-6.73,3.13-.07-.5-.25-1.33-.5-1.94,1.84.04,3.42,0,3.96-.07.68-.07,1.08-.58,1.12-1.15l-.11-11.45c-2.81,4.1-7.6,8.1-12.09,10.62-.36-.54-.94-1.22-1.44-1.62,4.61-2.34,9.57-6.66,12.35-10.87H7v-2.09h12.31l-.07-6.41,2.88.14c-.04.29-.32.5-.72.54l.04,5.72h8.6v2.09Z"/><path class="cls-1" d="M8.44,455.93v-17.49l3.42.22c-.04.32-.29.58-.86.65v16.63h-2.56ZM28.49,437.03c-.04.36-.29.54-.86.61v11.45c0,7.56-2.59,14.47-12.92,18.47-.36-.54-1.26-1.48-1.87-1.94,9.97-3.71,12.2-9.86,12.2-16.52v-12.27l3.46.22Z"/><path class="cls-1" d="M32.96,489.44h-10.76l.14,17.49c.07,3.64-2.38,3.74-9,3.67-.11-.65-.36-1.66-.65-2.34,2.38.04,5.22.04,5.87-.04.86-.11,1.3-.68,1.26-1.33l-.14-15.55c-3.67,5.4-9.65,11.01-15.51,14.47-.43-.65-1.12-1.4-1.76-1.94,5.87-3.24,12.06-8.89,15.73-14.43H3.8v-2.45h15.8l-.07-7.77,3.46.14c-.04.4-.4.61-.9.68l.07,6.95h10.8v2.45Z"/><path class="cls-1" d="M2.58,526.28c2.7-.11,24.87-1.69,29.55-1.73l.04,2.7c-.47-.04-.9-.04-1.33-.04-2.09,0-3.85.36-6.16,1.84-5.4,3.24-10.62,9.04-10.62,13.68,0,5.04,3.53,8.03,12.45,9.18l-1.19,2.52c-10.22-1.48-14.04-5.29-14.04-11.7,0-5.08,5-11.23,11.59-15.37-3.96.29-14.58,1.08-19.22,1.51-.11.29-.5.54-.79.58l-.29-3.17ZM25.9,533.37c1.73,1.3,3.78,3.42,4.9,4.97l-1.37,1.12c-1.01-1.58-3.2-3.82-4.75-5l1.22-1.08ZM29.79,530.2c1.76,1.3,3.85,3.38,4.9,4.97l-1.37,1.08c-.97-1.44-3.06-3.67-4.75-4.97l1.22-1.08Z"/><path class="cls-1" d="M19.42,570.56c-.04-.79-.14-4.71-.22-5.62l3.71.14c-.04.29-.29.65-.94.76,0,.43,0,.86.07,4.64,4.43-.14,9.07-.25,11.77-.29v2.48c-3.06-.07-7.42,0-11.7.14.07,2.81.14,5.4.25,7.38.36,1.19.43,2.27.43,3.78,0,1.15-.11,2.48-.36,3.49-.94,4.21-4.03,7.92-10.37,10.44-.47-.61-1.26-1.51-1.84-2.05,5.51-1.98,8.46-4.97,9.36-8.39h-.04c-.76,1.08-2.09,1.91-3.71,1.91-3.2,0-6.05-2.63-6.05-6.3-.04-3.82,3.06-6.73,6.48-6.73,1.3,0,2.63.47,3.35,1.12,0-.61-.07-3.02-.14-4.57-3.74.07-15.12.47-16.59.54l-.07-2.38,8.21-.22,8.39-.29ZM20.11,583.19c0-1.4,0-4.68-3.67-4.68-2.48.04-4.25,1.94-4.28,4.57,0,2.52,1.91,4.18,4,4.18,2.56,0,3.96-1.98,3.96-4.07Z"/></svg>