<?xml version="1.0" encoding="UTF-8"?><svg id="Layer_1" xmlns="http://www.w3.org/2000/svg" width="292" height="284" viewBox="0 0 292 284"><defs><style>.cls-1{fill:#231f20;}.cls-2{fill:#fff;}</style></defs><path class="cls-1" d="M22.5,76.54c-49.8,73.26-12.47,167,68.46,196.31,64.78,22.63,138.75,2.9,177.88-55.06,20.93-30.69,27.04-70.83,17.33-106.55C268.47,45.96,203.68,8.14,138.21,12.27c-45.71,1.74-89.64,26.44-115.56,64.06l-.14.2h-.01Z"/><path class="cls-2" d="M145.32,269.28c73.08,0,132.32-54.67,132.32-122.11S218.4,25.06,145.32,25.06,13,79.73,13,147.17s59.24,122.11,132.32,122.11Z"/><path class="cls-1" d="M51.51,212.57c.97,15.63-6.95,14.64-6.95,14.64,2.99,2.64,12.87,16.47,14.98,14.29.69-.71,8.33,4.99,1.02-2.62-4.09-4.24-3.97-9.71-1.12-15.08,1.74-5.79,4.96-11.09,9.26-15.22,2.8-2.43,13.04,4.01,16.09,5.76,2,1.74,2.1,4.24,3.63,6.56.89,1.31,2.05,2.53,3.12,3.78,3.06,3.37,4.73,8.14,7.97,11.25,1.83,1.78-.13,7.17,3.16,6.83,3.14-.25,13.71,1.97,16.31.24,2.12-1.42-8.69-5.92-10.99-7.84-4.99-3.05-3.46-11.35-6.36-15.53-1.49-2.57-1.77-4.81.61-6.86,1.22-1.08,1.58-2.44.95-3.92-1.03-2.8-2.06-5.6-2.75-8.57-1.67-7.4-6.75-13.76-9.94-20.36-1.98-3.83-12.43-16.13-7.43-19.38,2.07-.15,4.58.84,6.95,1.36,2.96.9,4.59,1.5,2.81,3.66-.74,1.66,2.79,1.3,4.02,1.46,3.14,0,6.32.76,9.12,1.83,2.57,1.03,6.17,1.8,8.51.64,1.98-1.09,3-1.61,5.47-1.43,9.12-.38,27.62.46,38.06-.59,5.01-3.49,4.14-12.15-2.3-13.79-3.05-.9-6.12,1.73-5.93,4.81-.21,5.12,9.56,6.47,8.17.44-.69-2.32-4.96-1.81-3.58.68.82,1.03.88-1.24,1.49-1,2.62,2.04-1.78,4.24-3.09,1.54-1.33-1.85.21-4.68,2.52-4.39,3.56.23,5.33,5.57,2.74,7.95-2.03,1.75-4.19,1.29-7.24,1.38-7.11.02-20.89.07-27.84.1-3.41.15-5.32,0-8.13-1.5-3.92-1.23-8.13-1.53-11.24-3.39-4.03-1.4-6.63-5.33-10.2-7.72-2.35-2.14-5.53-3.81-5.95-7.05-.05-3.3-1.19-9.1.84-11.08,1.67-.52,4.74.75,7.19.59,4.35-.21,8.68,1.34,11.98-1.57,2.17-2.37,3.7-5.28,4.99-8.2.83-2.75.89-6.5,2.01-9.1,1.71-3.79,1.43-3.19,2.47-4.99,1.13-2.09,1.68-1.53,2.33-3.7,0,0,1.22-.54,1.22-4.38-2.53-4.19-2.17-3.44-2.53-4.19-.1-.2-1-.58-1.34-1.25-.12-.28,0,0-.11-.24-.17-.36-.28-.49-.44-.83,0-.03-1.53-6.42-1.53-6.42v-1.66l3.15.08.04-1.7h-1.49s-.26-2.92-.18-3.29l-9.42.04-.11,1.63s-1.37.03-1.74,0l-.08,2.97-3.05-.11c-.11,1.54.04,1.48.11,3.69.04.99,3.25,1.73,4.06,1.86,1.83.31,3.3-.33,3.41,3.29.55,6.43.63,11.7-3.8,17.22-3.94,5.97-4.78,9.53-12.38,6.2-3.69-.73-12.94-2.82-12.02-7.36.21-1.05,3.5-.8,4.66-1.66.41-.31,1.99-4.24,2.55-4.52.45-.38-.38-1.79.05-2.13,1.67-1.31,3-2.39,3.16-3.71.87-6.96-2.72-10.03-7.24-12.32-2.94-1.75-6.24-1.75-9.34.03-1.67.76-3.65,1.51-4.47,3.23-.75,1.3-.69,3.4-.88,5.27-.48,3.3-1.64,6.6-3.33,9.3-2.75,2.74-5.14,6-7.1,9.44-3.58,3.77-6.11,8.81-6.09,13.96-.13,5.75.93,12.18.08,17.85-.84,3.68-3.63,6.78-4.96,10.39-1.12,2.55-.29,3.42,1.77.46,1.57-2.44,5.09-6.32,3.17-1.43-.64,2.08-3.56,4.63-3.25,6.65,2.37.5,3.8-5.73,5.66-6.82.06.12-.18.68-.55,1.58-2.52,5.69-4.12,10.55-2.35,16.67-.14,7,1.96,13.38,3.11,20.23-.74,5.61-3.71,11.28-4.12,16.9l-.03.23h-.03Z"/><path class="cls-1" d="M180.63,242.38c.05-1.79-.38-4.07-.36-5.93-.23-1.95,1.73-3.57,3.41-5.44,2.84-3.57,6.95-6.57,9.01-10.5.59-6.18,2.2-5.4,7.33-7.32,3.59-2,5.77.53,8.52,2.42,3.96,3.22,17.57,14.14,20.38,16.5.97.86.83,2.34.89,3.62.06,3.19.4,5.65-2.94,6.83-.58.33-.58.63.02.85,2.63.76,4.25-.95,6.45-3.13,1.94-1.98,3.75-3.68,5.87-5.36.78-.66,2.01-1.41,2.13-2.45,0-1.23-4.44-2.62-5.7-3.58-3.38-3.39-8.48-15.02-11.56-19.6-1.82-2.37-9.32-2.28-6.1-6.88,1.12-1.83,3.6-3.75,4.54-5.42,1.26-2.59.99-6.02,3.06-8.42,1.57-2.98,1.59-6.37,3.68-9.25,3.07-4.03,2.3-9.42.73-13.89-.46-2.23-1.83-3.88-2.67-5.88-.95-3.29-.38-8.14-.56-11.39.63-6.37,3.36-12.64-.16-18.61-1.24-3.44-6.65-6.18-7.1-9.96.12-.89,1.1-1.98,1.19-2.77-.24-1.88-2.06-2.82-2.15-5.14-.94-4.54-1.43-10-6.25-12.05-4.64-2.07-19.57-1.76-19.04,5.38.66,3.36,1.97,9.73-.46,12.82-.4.84,2.38,2.39,3.05,3,1.71,1.58,1.47,1.4.99,2.88-1.17,3.57.08.31-2.56,2.72-1.19,1.09-.2,5.39,1.02,5.12,1.71-.39,2.33-.7,4.05-.95,2.16-.31,4.23,2.8,3.73,3.46-4.25,3.79-4.22,8.87-10.95,8.1-13.11-.11-15.76-30.28-15.76-30.28-.16-3.94,3.7-3.47,6.39-5.43,1.22-1.09,3.02-1.8,3.01-3.48-1.89-4.32-8.29-2.4-12.16-2.84-2.3.06-3.66,1.03-5.96,1.31-1.85.09-9.57,1.94-9.66,3.99-.03.91.35,1.84.56,2.75.51,1.92.15,4.16,2.06,4.52,2.41.74,6.93-2.58,8.46-.14,0,0,4.32,11.18,5.67,15.35.71,2.2.59,7.75,1.39,12.23,1.19,3.97,2.84,2.52,2.31,7.03.16,1.45,1.68,7.8,1.27,13.38-.23,3.21,2.55,2.39,3.01,4.96.38,1.6,2.91,14.07,3.68,15.48,1.02,1.9,3.29,2,3.5,3.62-.83,4.34-2.52,9.63-4.33,13.36-2.72,3.53-5.87,5.72-7.58,10.18-.48,1.75-4.49,6.91-.31,5.79,1.48-.43,1.88.21,1.34,1.41-1.23,3.44-4.4,12.28-5.72,15.92-1.38,3.33-2.62,1.89-2.27-1.55-.18-8.1.35-26.3-.21-30.5-2.37-1.5-5.77.16-7.59-3.57-.94-1.14-2.63-1.48-3.98-2.21-3.94-2.43-4.65-7.71-.9-10.62.48-1.21,21.15-9.16,14.44-10.06-14.46-.14-39.47-.98-54.77-1.5-2.54-.14-1.09,6.33.64,6.91,1.31.83,3.44.93,5.07,1.13,4.38.75,9.9,3.78,8.97,8.91-.49,2.48-3.8,2.5-5.39,3.55-2.64,1.8-5.07,4.21-7.43,6.41-1.67,1.56-1.57,2.01-1.73,4.38-.33,4.89-1.04,15.91-1.28,19.54,0,6.51-.45,15.11.73,21.2,9.96.99,22.07-.18,33.56.06,9.31-.03,22.15-.23,29.07-.3.29-.06.36-.21.4-.54v-.11.02h.01Z"/><path class="cls-2" d="M185.56,147.17v7.21l2.12,1.94h9.32l1.76-3.34-9.15-5.81h-4.05Z"/><path class="cls-2" d="M190.74,163.99c-.49.3-4.77-.93-3.56,1.38.73,1.39,1.34,5.65,1.62,7.64.45,3.04.9,8.17.9,8.17l-2.86.43s-1.4,5.06-.35,5.12c2.68-.06,3.65-3.5,6.15-5.06.53-.33,2.01-2.19,1.97-2.77-.09-.95,1.84-1.81,2.32-2.77.77-1.69,1.18-2.24,1.85-3.99.83-2.4,1.13-.45.44-3.3-.4-1.26-.8-2.49-1.82-3.39-1.67-1.46-4.71-2.05-6.52-1.54l-.13.06v.02Z"/><path class="cls-1" d="M81.67,53.21v23.74h-6.19v-9.98h-1.86v9.98h-6.19v-23.74h6.19v8.5h1.86v-8.5h6.19Z"/><path class="cls-1" d="M98.87,53.21l-3.15,23.74h-9.4l-3.58-23.74h6.52c.75,6.55,1.3,12.08,1.62,16.61.31-4.58.67-8.64,1.02-12.19l.43-4.42h6.54Z"/><path class="cls-1" d="M110.23,53.21l3.54,23.74h-6.32l-.33-4.27h-2.21l-.38,4.27h-6.4l3.16-23.74h8.95-.01ZM106.94,68.48c-.31-2.69-.63-6.01-.94-9.98-.63,4.54-1.03,7.87-1.19,9.98h2.13Z"/><path class="cls-1" d="M127.93,60.41h-5.75v-1.76c0-.83-.07-1.34-.23-1.56-.15-.23-.39-.34-.74-.34-.38,0-.65.15-.84.45-.19.3-.29.76-.29,1.38,0,.79.11,1.39.33,1.79.2.4.79.89,1.74,1.45,2.76,1.63,4.49,2.97,5.21,4.02.72,1.05,1.08,2.73,1.08,5.06,0,1.69-.2,2.94-.59,3.74-.39.8-1.17,1.48-2.3,2.02-1.13.54-2.46.81-3.96.81-1.66,0-3.07-.31-4.24-.94-1.17-.63-1.93-1.43-2.3-2.39-.36-.96-.54-2.34-.54-4.12v-1.55h5.75v2.89c0,.89.08,1.46.24,1.71.16.25.45.38.87.38s.71-.16.92-.49c.2-.33.3-.8.3-1.44,0-1.4-.19-2.32-.58-2.74-.39-.43-1.36-1.15-2.9-2.15-1.54-1.01-2.56-1.75-3.06-2.22-.5-.46-.92-1.1-1.24-1.9-.33-.8-.49-1.85-.49-3.1,0-1.81.24-3.15.7-3.99.46-.84,1.22-1.5,2.26-1.98,1.04-.48,2.3-.71,3.76-.71,1.61,0,2.97.26,4.12.78,1.14.51,1.88,1.18,2.25,1.95.36.78.55,2.13.55,4.02v.94h-.03Z"/><path class="cls-1" d="M143.5,60.41h-5.75v-1.76c0-.83-.07-1.34-.22-1.56-.15-.23-.39-.34-.74-.34-.38,0-.65.15-.84.45-.19.3-.29.76-.29,1.38,0,.79.11,1.39.33,1.79.2.4.79.89,1.74,1.45,2.76,1.63,4.49,2.97,5.21,4.02.72,1.05,1.08,2.73,1.08,5.06,0,1.69-.2,2.94-.59,3.74-.39.8-1.17,1.48-2.3,2.02-1.13.54-2.46.81-3.96.81-1.66,0-3.07-.31-4.24-.94-1.17-.63-1.93-1.43-2.3-2.39-.36-.96-.54-2.34-.54-4.12v-1.55h5.75v2.89c0,.89.07,1.46.24,1.71.16.25.45.38.87.38s.72-.16.92-.49c.2-.33.3-.8.3-1.44,0-1.4-.19-2.32-.58-2.74-.39-.43-1.35-1.15-2.9-2.15-1.54-1.01-2.56-1.75-3.06-2.22-.5-.46-.92-1.1-1.24-1.9-.33-.8-.49-1.85-.49-3.1,0-1.81.24-3.15.7-3.99.46-.84,1.22-1.5,2.26-1.98,1.04-.48,2.3-.71,3.76-.71,1.61,0,2.97.26,4.11.78,1.14.51,1.88,1.18,2.25,1.95.36.78.55,2.13.55,4.02v.94h-.02Z"/><path class="cls-1" d="M170.37,53.21v23.74h-5.41v-16.03l-2.16,16.03h-3.84l-2.27-15.67v15.67h-5.42v-23.74h8c.24,1.43.48,3.12.74,5.04l.88,6.05,1.42-11.09h8.06Z"/><path class="cls-1" d="M172.85,53.21h10.33v4.76h-4.13v4.51h3.87v4.52h-3.87v5.22h4.54v4.76h-10.73v-23.74h-.01Z"/><path class="cls-1" d="M197.43,53.21v4.76h-3.68v19h-6.19v-19h-3.66v-4.76h13.53Z"/><path class="cls-1" d="M208.34,53.21l3.54,23.74h-6.32l-.33-4.27h-2.21l-.38,4.27h-6.4l3.16-23.74h8.95-.01ZM205.06,68.48c-.31-2.69-.63-6.01-.94-9.98-.63,4.54-1.03,7.87-1.19,9.98h2.13Z"/><path class="cls-1" d="M219.12,53.21v19h3.76v4.76h-9.95v-23.74h6.18Z"/><path class="cls-1" d="M97.84,258.79l1.03-.14h.25l.87.14v.48h-2.15v-.48ZM97.92,253.5h1.25v.6h-.13l-1.13-.13v-.48ZM98.68,253.5h.5l.06,3.04v2.73h-.56v-5.76h0ZM98.73,253.5h1.49l1.58,4.27h-.29l1.49-4.27h.58l-2.03,5.76h-.68l-2.15-5.76ZM102.46,258.79l1.13-.14h.4l1.28.14v.48h-2.8v-.48h-.01ZM103.11,256.73l.04-3.23h1.47c-.03.9-.03,1.82-.03,2.72v.32c0,.91,0,1.83.03,2.72h-1.52c.03-.9.03-1.81.03-2.53h-.01ZM103.85,253.5h1.38v.48l-1.24.13h-.14v-.6Z"/><path class="cls-1" d="M105.84,253.98v-.48h1.42v.6h-.14l-1.28-.13ZM107.25,258.66v.6h-1.42v-.47l1.28-.14h.14ZM106.51,256.22c0-.9,0-1.82-.03-2.72h1.53c-.02.89-.02,1.8-.02,2.72v.29c0,.94,0,1.85.02,2.75h-1.53c.03-.89.03-1.8.03-2.72v-.32ZM109.39,253.5l.64.5h-2.77v-.5h3.07l.06,1.51h-.73l-.26-1.51h-.01ZM109.19,256.54h-1.93v-.51h1.93v.51ZM110.55,257.76l-.06,1.51h-3.25v-.49h2.95l-.64.49.26-1.51h.74ZM108.91,256.18l.14-.84h.52v1.89h-.52l-.14-.89v-.16Z"/><path class="cls-1" d="M111.27,254l.64-.5-.23,1.63h-.73l.04-1.63h5.16l.03,1.63h-.73l-.23-1.63.63.5h-4.58ZM113.74,258.66l1.33.14v.48h-3.01v-.48l1.3-.14h.39-.01ZM112.82,256.22c0-.9,0-1.82-.02-2.72h1.53c-.03.89-.03,1.8-.03,2.72v.31c0,.91,0,1.83.03,2.73h-1.53c.02-.89.02-1.8.02-2.72v-.32Z"/><path class="cls-1" d="M115.74,258.79l.9-.14h.15l.83.14v.48h-1.89v-.48h.01ZM118.23,253.49h.9l1.98,5.77h-1.51l-1.51-4.71.33-.44-1.68,5.14h-.53l1.98-5.77h.03ZM117.29,257.08h2.37l.2.51h-2.72l.15-.51ZM118.77,258.81l.99-.14h.59l1.13.14v.45h-2.71v-.45Z"/><path class="cls-1" d="M121.86,253.98v-.48h2.9v.48l-1.31.13h-.33l-1.28-.13h.01ZM123.26,258.66v.6h-1.42v-.47l1.28-.14h.14ZM122.5,253.5h1.53c-.03.89-.03,1.8-.03,2.72v.46c0,.78,0,1.68.03,2.58h-1.53c.03-.89.03-1.8.03-2.53v-.51c0-.91,0-1.82-.03-2.72ZM126.49,257.54l-.09,1.71h-3.14v-.5h2.85l-.67.5.35-1.71h.7-.01Z"/><path class="cls-1" d="M128.62,258.79l.9-.14h.15l.84.14v.48h-1.9v-.48ZM131.12,253.49h.9l1.98,5.77h-1.51l-1.51-4.71.33-.44-1.68,5.14h-.53l1.98-5.77h.03ZM130.16,257.08h2.37l.2.51h-2.72l.15-.51ZM131.65,258.81l.99-.14h.59l1.13.14v.45h-2.71v-.45Z"/><path class="cls-1" d="M134.73,253.98v-.48h1.42v.6h-.14l-1.28-.13ZM136.29,258.66l1.28.14v.48h-2.82v-.48l1.28-.14h.28-.01ZM135.41,256.22c0-.9,0-1.82-.03-2.72h1.51c-.03.89-.03,1.79-.03,2.74v.26c0,.94,0,1.84.03,2.75h-1.51c.03-.89.03-1.8.03-2.72v-.32ZM136.16,256.13h1.04c.88,0,1.14-.51,1.14-1.08,0-.7-.38-1.04-1.1-1.04h-1.09v-.5h1.44c1.38,0,2.15.55,2.15,1.45,0,.66-.5,1.35-2.06,1.44v-.09c1.39.04,1.74.5,1.9,1.44l.24,1.35-.73-.45,1.32.15v.48c-.41.1-.57.13-.97.13-.75,0-1.19-.21-1.28-.9l-.16-1.01c-.09-.59-.3-.86-.83-.86h-1.02v-.49h.01Z"/><path class="cls-1" d="M140.55,254l.64-.5-.23,1.63h-.73l.04-1.63h5.16l.03,1.63h-.73l-.23-1.63.63.5h-4.58ZM143.03,258.66l1.33.14v.48h-3.01v-.48l1.3-.14h.39-.01ZM142.1,256.22c0-.9,0-1.82-.03-2.72h1.53c-.02.89-.02,1.8-.02,2.72v.31c0,.91,0,1.83.02,2.73h-1.53c.03-.89.03-1.8.03-2.72v-.32Z"/><path class="cls-1" d="M147.53,258.79l.9-.14h.15l.84.14v.48h-1.89v-.48ZM150.03,253.49h.9l1.98,5.77h-1.5l-1.51-4.71.33-.44-1.68,5.14h-.53l1.98-5.77h.03ZM149.07,257.08h2.37l.2.51h-2.72l.15-.51ZM150.55,258.81l.99-.14h.59l1.13.14v.45h-2.71v-.45Z"/><path class="cls-1" d="M153.6,258.79l.94-.14h.25l1.13.14v.48h-2.32v-.48ZM154.07,253.81l.5.25-.95-.07v-.48h1.98l3.15,4.32v1.46h-.74l-3.94-5.47h0ZM154.34,253.5l.56.48v5.28h-.56v-5.76ZM157.18,253.5h2.32v.48l-.89.13h-.25l-1.18-.13v-.48ZM158.18,253.5h.57v5.78l-.57-.56v-5.21h0Z"/><path class="cls-1" d="M159.95,253.98v-.48h1.42v.6h-.14l-1.28-.13ZM161.36,258.66v.6h-1.42v-.47l1.28-.14h.14ZM160.62,256.22c0-.9,0-1.82-.03-2.72h1.53c-.02.89-.02,1.8-.02,2.72v.29c0,.94,0,1.85.02,2.75h-1.53c.03-.89.03-1.8.03-2.75v-.3h0ZM161.36,258.76h1.04c1,0,1.63-.86,1.63-2.38s-.63-2.38-1.62-2.38h-1.05v-.5h1.19c1.87,0,3,1.09,3,2.87s-1.24,2.89-3.16,2.89h-1.04v-.5h.01Z"/><path class="cls-1" d="M172.59,258.42v.45l-.59.12.3-1.38h.67l-.04,1.35c-.48.26-1.09.45-1.84.45-1.69,0-3.05-.99-3.05-3.04s1.47-3.04,3.11-3.04c.66,0,1.2.15,1.72.44l.04,1.36h-.67l-.3-1.39.59.14v.49c-.41-.38-.77-.53-1.17-.53-.94,0-1.77.76-1.77,2.55s.79,2.54,1.72,2.54c.44,0,.87-.17,1.28-.5v-.02Z"/><path class="cls-1" d="M173.48,253.98v-.48h1.42v.6h-.14l-1.28-.13ZM175.03,258.66l1.28.14v.48h-2.82v-.48l1.28-.14h.28-.01ZM174.16,256.22c0-.9,0-1.82-.03-2.72h1.51c-.03.89-.03,1.79-.03,2.74v.26c0,.94,0,1.84.03,2.75h-1.51c.03-.89.03-1.8.03-2.72v-.32ZM174.91,256.13h1.04c.88,0,1.14-.51,1.14-1.08,0-.7-.38-1.04-1.1-1.04h-1.09v-.5h1.44c1.38,0,2.15.55,2.15,1.45,0,.66-.5,1.35-2.06,1.44v-.09c1.39.04,1.74.5,1.9,1.44l.24,1.35-.73-.45,1.32.15v.48c-.41.1-.56.13-.97.13-.75,0-1.19-.21-1.28-.9l-.16-1.01c-.09-.59-.3-.86-.83-.86h-1.02v-.49h.01Z"/><path class="cls-1" d="M179.35,258.79l.9-.14h.15l.83.14v.48h-1.9v-.48h.01ZM181.86,253.49h.9l1.98,5.77h-1.51l-1.51-4.71.33-.44-1.68,5.14h-.53l1.98-5.77h.02ZM180.91,257.08h2.37l.2.51h-2.72l.15-.51ZM182.39,258.81l.99-.14h.59l1.13.14v.45h-2.71v-.45Z"/><path class="cls-1" d="M185.47,253.98v-.48h1.42v.6h-.14l-1.28-.13ZM187.15,258.66l1.28.14v.48h-2.96v-.48l1.28-.14h.4ZM186.15,256.22c0-.9,0-1.82-.02-2.72h1.53c-.02.89-.02,1.8-.02,2.72v.29c0,.94,0,1.85.02,2.75h-1.53c.02-.89.02-1.8.02-2.72v-.32ZM189.09,253.5l.64.5h-2.84v-.5h3.14l.06,1.51h-.73l-.26-1.51h-.01ZM188.85,256.54h-1.96v-.51h1.96v.51ZM188.57,256.18l.14-.84h.51v1.98h-.51l-.14-.89v-.25Z"/><path class="cls-1" d="M190.87,254l.64-.5-.23,1.63h-.73l.04-1.63h5.16l.02,1.63h-.73l-.23-1.63.63.5h-4.58ZM193.33,258.66l1.33.14v.48h-3.01v-.48l1.3-.14h.39-.01ZM192.41,256.22c0-.9,0-1.82-.03-2.72h1.53c-.02.89-.02,1.8-.02,2.72v.31c0,.91,0,1.83.02,2.73h-1.53c.03-.89.03-1.8.03-2.72v-.32Z"/><path class="cls-1" d="M68.11,44.93c7.05,0,12.77-5.7,12.77-12.74s-5.72-12.74-12.77-12.74-12.77,5.7-12.77,12.74,5.72,12.74,12.77,12.74Z"/><path class="cls-1" d="M227.27,44.93c7.05,0,12.77-5.7,12.77-12.74s-5.72-12.74-12.77-12.74-12.77,5.7-12.77,12.74,5.72,12.74,12.77,12.74Z"/><path class="cls-1" d="M60.36,1.08c.36.26.51.78.58,1.25.34,1.9.29,5.08.9,6.72.29.44.83.44,1.3.45,1.02,0,2.3-.09,3.15-.58,2.33-1.18,1.84-4.69,2.13-7.13.04-.41.08-.8.2-1.15.36-1,1.72-.71,2.13.14.23.55.11,1.13.06,1.74-.25,1.85-.43,4.08-.77,5.85-.67,2.4-3.34,3.12-2.84,5.97.08,1.79.19,4.06.26,5.81.03.68,0,1.14-.25,1.4-.49.48-1.56.43-2.28.46-1.18.05-1.97-.05-1.97-1.53-.1-1.78-.23-5.29-.34-6.85-.06-.68-.24-1.2-.73-1.69-.78-.83-1.98-1.39-2.55-2.47-.63-1.23-.13-2.77-.26-4.31.03-1.2-.68-4.71,1.22-4.13l.05.04h-.01Z"/><path class="cls-1" d="M226.54.88c.34.3.41.83.43,1.31.11,1.93-.31,5.08.1,6.77.24.46.76.54,1.24.6,1.02.11,2.3.18,3.19-.2,2.46-.89,2.38-4.44,2.96-6.83.09-.4.16-.79.34-1.13.49-.95,1.79-.51,2.11.39.16.56-.01,1.14-.15,1.74-.48,1.81-.9,3.99-1.46,5.71-.95,2.3-3.68,2.7-3.53,5.59-.14,1.78-.29,4.06-.43,5.81-.06.68-.14,1.13-.41,1.36-.54.43-1.59.24-2.32.2-1.18-.09-1.94-.28-1.77-1.75.1-1.78.4-5.29.48-6.83.02-.68-.09-1.23-.51-1.76-.68-.91-1.81-1.61-2.25-2.75-.49-1.29.2-2.75.25-4.31.16-1.2-.12-4.76,1.69-3.97l.05.04h-.01Z"/><path class="cls-1" d="M231.47,241.51H61.24v9.72h170.23v-9.72Z"/></svg>